<svg width="597.6" height="597.6" title="test2" version="1.1" xmlns="http://www.w3.org/2000/svg"><rect fill="none" width="577.6" height="577.6"></rect><g transform="translate(60,150)"><rect fill="none" width="487.6" height="367.6"></rect><text x="243.8" y="-75" text-anchor="middle" style="font-size: 100px; font-family: sans-serif; font-weight: bold;">Exponential</text><g transform="translate(0,367.6)" fill="none" font-size="10" font-family="sans-serif" text-anchor="middle" style="stroke: black;"><path class="domain" stroke="#000" d="M0.5,6V0.5H488.1V6" style="stroke: black;"></path><g class="tick" opacity="1" transform="translate(0.5,0)"><line stroke="#000" y2="6" style="stroke: black;"></line><text fill="#000" y="9" dy="0.71em" style="font-weight: lighter;">0.0</text></g><g class="tick" opacity="1" transform="translate(49.260000000000005,0)"><line stroke="#000" y2="6" style="stroke: black;"></line><text fill="#000" y="9" dy="0.71em" style="font-weight: lighter;">0.5</text></g><g class="tick" opacity="1" transform="translate(98.02000000000001,0)"><line stroke="#000" y2="6" style="stroke: black;"></line><text fill="#000" y="9" dy="0.71em" style="font-weight: lighter;">1.0</text></g><g class="tick" opacity="1" transform="translate(146.78,0)"><line stroke="#000" y2="6" style="stroke: black;"></line><text fill="#000" y="9" dy="0.71em" style="font-weight: lighter;">1.5</text></g><g class="tick" opacity="1" transform="translate(195.54000000000002,0)"><line stroke="#000" y2="6" style="stroke: black;"></line><text fill="#000" y="9" dy="0.71em" style="font-weight: lighter;">2.0</text></g><g class="tick" opacity="1" transform="translate(244.3,0)"><line stroke="#000" y2="6" style="stroke: black;"></line><text fill="#000" y="9" dy="0.71em" style="font-weight: lighter;">2.5</text></g><g class="tick" opacity="1" transform="translate(293.06,0)"><line stroke="#000" y2="6" style="stroke: black;"></line><text fill="#000" y="9" dy="0.71em" style="font-weight: lighter;">3.0</text></g><g class="tick" opacity="1" transform="translate(341.82,0)"><line stroke="#000" y2="6" style="stroke: black;"></line><text fill="#000" y="9" dy="0.71em" style="font-weight: lighter;">3.5</text></g><g class="tick" opacity="1" transform="translate(390.58000000000004,0)"><line stroke="#000" y2="6" style="stroke: black;"></line><text fill="#000" y="9" dy="0.71em" style="font-weight: lighter;">4.0</text></g><g class="tick" opacity="1" transform="translate(439.34000000000003,0)"><line stroke="#000" y2="6" style="stroke: black;"></line><text fill="#000" y="9" dy="0.71em" style="font-weight: lighter;">4.5</text></g><g class="tick" opacity="1" transform="translate(488.1,0)"><line stroke="#000" y2="6" style="stroke: black;"></line><text fill="#000" y="9" dy="0.71em" style="font-weight: lighter;">5.0</text></g></g><g transform="translate(0,0)" fill="none" font-size="10" font-family="sans-serif" text-anchor="end" style="stroke: black;"><path class="domain" stroke="#000" d="M-6,368.1H0.5V0.5H-6" style="stroke: black;"></path><g class="tick" opacity="1" transform="translate(0,320.7202409608477)"><line stroke="#000" x2="-6" style="stroke: black;"></line><text fill="#000" x="-9" dy="0.32em" style="font-weight: lighter;">20</text></g><g class="tick" opacity="1" transform="translate(0,270.84681039331906)"><line stroke="#000" x2="-6" style="stroke: black;"></line><text fill="#000" x="-9" dy="0.32em" style="font-weight: lighter;">40</text></g><g class="tick" opacity="1" transform="translate(0,220.97337982579035)"><line stroke="#000" x2="-6" style="stroke: black;"></line><text fill="#000" x="-9" dy="0.32em" style="font-weight: lighter;">60</text></g><g class="tick" opacity="1" transform="translate(0,171.09994925826163)"><line stroke="#000" x2="-6" style="stroke: black;"></line><text fill="#000" x="-9" dy="0.32em" style="font-weight: lighter;">80</text></g><g class="tick" opacity="1" transform="translate(0,121.22651869073292)"><line stroke="#000" x2="-6" style="stroke: black;"></line><text fill="#000" x="-9" dy="0.32em" style="font-weight: lighter;">100</text></g><g class="tick" opacity="1" transform="translate(0,71.3530881232042)"><line stroke="#000" x2="-6" style="stroke: black;"></line><text fill="#000" x="-9" dy="0.32em" style="font-weight: lighter;">120</text></g><g class="tick" opacity="1" transform="translate(0,21.479657555675487)"><line stroke="#000" x2="-6" style="stroke: black;"></line><text fill="#000" x="-9" dy="0.32em" style="font-weight: lighter;">140</text></g></g><path d="M0,367.6C16.253333333333334,367.1482203862713,32.506666666666675,366.69644077254253,48.760000000000005,365.98230241370584C65.01333333333334,365.26816405486915,81.26666666666668,364.49258503759097,97.52000000000001,363.31516984697976C113.77333333333334,362.13775465636854,130.02666666666667,360.859040751269,146.28,358.9178112700386C162.53333333333333,356.97658178880823,178.7866666666667,354.86833932194384,195.04000000000002,351.66779295959736C211.29333333333335,348.4672465972509,227.54666666666668,344.99134195933846,243.8,339.7145330959597C260.05333333333334,334.437724232581,276.3066666666667,328.70692584298445,292.56,320.006939779325C308.81333333333333,311.3069537156656,325.06666666666666,301.85847011533207,341.32,287.514616714003C357.5733333333333,273.17076331267396,373.8266666666667,257.5928359268151,390.08000000000004,233.9438193713506C406.33333333333337,210.29480281588613,422.5866666666667,184.61115394310795,438.84000000000003,145.6205173812162C455.09333333333336,106.62988081932443,471.3466666666667,53.31494040966221,487.6,0" style="stroke-width: 3; stroke: purple; opacity: 1; fill: none;"></path><circle cy="367.6" cx="0" r="7" style="opacity: 1; fill: green;"></circle><circle cy="365.98230241370584" cx="48.760000000000005" r="7" style="opacity: 1; fill: green;"></circle><circle cy="363.31516984697976" cx="97.52000000000001" r="7" style="opacity: 1; fill: green;"></circle><circle cy="358.9178112700386" cx="146.28" r="7" style="opacity: 1; fill: green;"></circle><circle cy="351.66779295959736" cx="195.04000000000002" r="7" style="opacity: 1; fill: green;"></circle><circle cy="339.7145330959597" cx="243.8" r="7" style="opacity: 1; fill: green;"></circle><circle cy="320.006939779325" cx="292.56" r="7" style="opacity: 1; fill: green;"></circle><circle cy="287.514616714003" cx="341.32" r="7" style="opacity: 1; fill: green;"></circle><circle cy="233.9438193713506" cx="390.08000000000004" r="7" style="opacity: 1; fill: green;"></circle><circle cy="145.6205173812162" cx="438.84000000000003" r="7" style="opacity: 1; fill: green;"></circle><circle cy="0" cx="487.6" r="7" style="opacity: 1; fill: green;"></circle></g><text x="288.8" y="577.6" style="text-anchor: middle; font-family: sans-serif;">x</text><text y="0" x="0" transform="translate(0,288.8) rotate(-90)" dy="1em" style="text-anchor: middle; font-family: sans-serif;">exp(x)</text></svg>