<svg width="595.8000000000001" height="595.8000000000001" title="test2" version="1.1" xmlns="http://www.w3.org/2000/svg"><rect fill="none" width="575.8000000000001" height="575.8000000000001"></rect><g transform="translate(60,150)"><rect fill="none" width="485.80000000000007" height="365.80000000000007"></rect><text x="242.90000000000003" y="-75" text-anchor="middle" style="font-size: 100px; font-family: sans-serif; font-weight: bold;">Exponential</text><g transform="translate(0,365.80000000000007)" fill="none" font-size="10" font-family="sans-serif" text-anchor="middle" style="stroke: black;"><path class="domain" stroke="#000" d="M0.5,6V0.5H486.30000000000007V6" style="stroke: black;"></path><g class="tick" opacity="1" transform="translate(0.5,0)"><line stroke="#000" y2="6" style="stroke: black;"></line><text fill="#000" y="9" dy="0.71em" style="font-weight: lighter;">0.0</text></g><g class="tick" opacity="1" transform="translate(49.08000000000001,0)"><line stroke="#000" y2="6" style="stroke: black;"></line><text fill="#000" y="9" dy="0.71em" style="font-weight: lighter;">0.5</text></g><g class="tick" opacity="1" transform="translate(97.66000000000003,0)"><line stroke="#000" y2="6" style="stroke: black;"></line><text fill="#000" y="9" dy="0.71em" style="font-weight: lighter;">1.0</text></g><g class="tick" opacity="1" transform="translate(146.24,0)"><line stroke="#000" y2="6" style="stroke: black;"></line><text fill="#000" y="9" dy="0.71em" style="font-weight: lighter;">1.5</text></g><g class="tick" opacity="1" transform="translate(194.82000000000005,0)"><line stroke="#000" y2="6" style="stroke: black;"></line><text fill="#000" y="9" dy="0.71em" style="font-weight: lighter;">2.0</text></g><g class="tick" opacity="1" transform="translate(243.40000000000003,0)"><line stroke="#000" y2="6" style="stroke: black;"></line><text fill="#000" y="9" dy="0.71em" style="font-weight: lighter;">2.5</text></g><g class="tick" opacity="1" transform="translate(291.98,0)"><line stroke="#000" y2="6" style="stroke: black;"></line><text fill="#000" y="9" dy="0.71em" style="font-weight: lighter;">3.0</text></g><g class="tick" opacity="1" transform="translate(340.56,0)"><line stroke="#000" y2="6" style="stroke: black;"></line><text fill="#000" y="9" dy="0.71em" style="font-weight: lighter;">3.5</text></g><g class="tick" opacity="1" transform="translate(389.1400000000001,0)"><line stroke="#000" y2="6" style="stroke: black;"></line><text fill="#000" y="9" dy="0.71em" style="font-weight: lighter;">4.0</text></g><g class="tick" opacity="1" transform="translate(437.7200000000001,0)"><line stroke="#000" y2="6" style="stroke: black;"></line><text fill="#000" y="9" dy="0.71em" style="font-weight: lighter;">4.5</text></g><g class="tick" opacity="1" transform="translate(486.30000000000007,0)"><line stroke="#000" y2="6" style="stroke: black;"></line><text fill="#000" y="9" dy="0.71em" style="font-weight: lighter;">5.0</text></g></g><g transform="translate(0,0)" fill="none" font-size="10" font-family="sans-serif" text-anchor="end" style="stroke: black;"><path class="domain" stroke="#000" d="M-6,366.30000000000007H0.5V0.5H-6" style="stroke: black;"></path><g class="tick" opacity="1" transform="translate(0,319.152241957231)"><line stroke="#000" x2="-6" style="stroke: black;"></line><text fill="#000" x="-9" dy="0.32em" style="font-weight: lighter;">20</text></g><g class="tick" opacity="1" transform="translate(0,269.52302296484254)"><line stroke="#000" x2="-6" style="stroke: black;"></line><text fill="#000" x="-9" dy="0.32em" style="font-weight: lighter;">40</text></g><g class="tick" opacity="1" transform="translate(0,219.89380397245407)"><line stroke="#000" x2="-6" style="stroke: black;"></line><text fill="#000" x="-9" dy="0.32em" style="font-weight: lighter;">60</text></g><g class="tick" opacity="1" transform="translate(0,170.2645849800656)"><line stroke="#000" x2="-6" style="stroke: black;"></line><text fill="#000" x="-9" dy="0.32em" style="font-weight: lighter;">80</text></g><g class="tick" opacity="1" transform="translate(0,120.63536598767709)"><line stroke="#000" x2="-6" style="stroke: black;"></line><text fill="#000" x="-9" dy="0.32em" style="font-weight: lighter;">100</text></g><g class="tick" opacity="1" transform="translate(0,71.00614699528865)"><line stroke="#000" x2="-6" style="stroke: black;"></line><text fill="#000" x="-9" dy="0.32em" style="font-weight: lighter;">120</text></g><g class="tick" opacity="1" transform="translate(0,21.376928002900172)"><line stroke="#000" x2="-6" style="stroke: black;"></line><text fill="#000" x="-9" dy="0.32em" style="font-weight: lighter;">140</text></g></g><path d="M0,365.80000000000007C16.19333333333334,365.35043258242126,32.38666666666667,364.9008651648424,48.58000000000001,364.1902236750098C64.77333333333335,363.4795821851772,80.96666666666668,362.7078008888759,97.16000000000003,361.5361510610044C113.35333333333335,360.36450123313284,129.54666666666668,359.0920487127699,145.74,357.16032470778055C161.93333333333337,355.2286007027912,178.1266666666667,353.1306815124241,194.32000000000005,349.9458070310684C210.51333333333338,346.7609325497127,226.7066666666667,343.30204811949403,242.90000000000003,338.05107781964654C259.09333333333336,332.80010751979904,275.2866666666667,327.09737071100034,291.48,318.4399852319834C307.67333333333335,309.7825997529665,323.8666666666667,300.3803818503495,340.06,286.1067649455449C356.2533333333334,271.8331480407403,372.4466666666667,256.33149995111256,388.6400000000001,232.79828380315575C404.8333333333334,209.265067655199,421.02666666666676,183.707182024997,437.2200000000001,144.90746805780438C453.4133333333334,106.10775409061176,469.60666666666674,53.05387704530588,485.80000000000007,0" style="stroke-width: 3; stroke: black; opacity: 1; fill: none;"></path><circle cy="365.80000000000007" cx="0" r="7" style="opacity: 1; fill: red;"></circle><circle cy="364.1902236750098" cx="48.58000000000001" r="7" style="opacity: 1; fill: red;"></circle><circle cy="361.5361510610044" cx="97.16000000000003" r="7" style="opacity: 1; fill: red;"></circle><circle cy="357.16032470778055" cx="145.74" r="7" style="opacity: 1; fill: red;"></circle><circle cy="349.9458070310684" cx="194.32000000000005" r="7" style="opacity: 1; fill: red;"></circle><circle cy="338.05107781964654" cx="242.90000000000003" r="7" style="opacity: 1; fill: red;"></circle><circle cy="318.4399852319834" cx="291.48" r="7" style="opacity: 1; fill: red;"></circle><circle cy="286.1067649455449" cx="340.06" r="7" style="opacity: 1; fill: red;"></circle><circle cy="232.79828380315575" cx="388.6400000000001" r="7" style="opacity: 1; fill: red;"></circle><circle cy="144.90746805780438" cx="437.2200000000001" r="7" style="opacity: 1; fill: red;"></circle><circle cy="0" cx="485.80000000000007" r="7" style="opacity: 1; fill: red;"></circle></g><text x="287.90000000000003" y="575.8000000000001" style="text-anchor: middle; font-family: sans-serif;">x</text><text y="0" x="0" transform="translate(0,287.90000000000003) rotate(-90)" dy="1em" style="text-anchor: middle; font-family: sans-serif;">exp(x)</text></svg>