<svg width="1019.7" height="595.8000000000001" title="test2" version="1.1" xmlns="http://www.w3.org/2000/svg"><rect fill="none" width="999.7" height="575.8000000000001"></rect><g transform="translate(60,30)"><rect fill="none" width="909.7" height="485.80000000000007"></rect><text x="454.85" y="-15" text-anchor="middle" style="font-size: 18px; font-family: sans-serif; font-weight: bold;">Interpolation examples</text><g transform="translate(0,240.22065096473597)" fill="none" font-size="10" font-family="sans-serif" text-anchor="middle" style="stroke: black;"><path class="domain" stroke="#000" d="M0.5,6V0.5H910.2V6" style="stroke: black;"></path><g class="tick" opacity="1" transform="translate(0.5,0)"><line stroke="#000" y2="6" style="stroke: black;"></line><text fill="#000" y="9" dy="0.71em" style="font-weight: lighter;">0</text></g><g class="tick" opacity="1" transform="translate(91.47000000000001,0)"><line stroke="#000" y2="6" style="stroke: black;"></line><text fill="#000" y="9" dy="0.71em" style="font-weight: lighter;">1</text></g><g class="tick" opacity="1" transform="translate(182.44000000000003,0)"><line stroke="#000" y2="6" style="stroke: black;"></line><text fill="#000" y="9" dy="0.71em" style="font-weight: lighter;">2</text></g><g class="tick" opacity="1" transform="translate(273.41,0)"><line stroke="#000" y2="6" style="stroke: black;"></line><text fill="#000" y="9" dy="0.71em" style="font-weight: lighter;">3</text></g><g class="tick" opacity="1" transform="translate(364.38000000000005,0)"><line stroke="#000" y2="6" style="stroke: black;"></line><text fill="#000" y="9" dy="0.71em" style="font-weight: lighter;">4</text></g><g class="tick" opacity="1" transform="translate(455.35,0)"><line stroke="#000" y2="6" style="stroke: black;"></line><text fill="#000" y="9" dy="0.71em" style="font-weight: lighter;">5</text></g><g class="tick" opacity="1" transform="translate(546.32,0)"><line stroke="#000" y2="6" style="stroke: black;"></line><text fill="#000" y="9" dy="0.71em" style="font-weight: lighter;">6</text></g><g class="tick" opacity="1" transform="translate(637.29,0)"><line stroke="#000" y2="6" style="stroke: black;"></line><text fill="#000" y="9" dy="0.71em" style="font-weight: lighter;">7</text></g><g class="tick" opacity="1" transform="translate(728.2600000000001,0)"><line stroke="#000" y2="6" style="stroke: black;"></line><text fill="#000" y="9" dy="0.71em" style="font-weight: lighter;">8</text></g><g class="tick" opacity="1" transform="translate(819.23,0)"><line stroke="#000" y2="6" style="stroke: black;"></line><text fill="#000" y="9" dy="0.71em" style="font-weight: lighter;">9</text></g><g class="tick" opacity="1" transform="translate(910.2,0)"><line stroke="#000" y2="6" style="stroke: black;"></line><text fill="#000" y="9" dy="0.71em" style="font-weight: lighter;">10</text></g></g><g transform="translate(0,0)" fill="none" font-size="10" font-family="sans-serif" text-anchor="end" style="stroke: black;"><path class="domain" stroke="#000" d="M-6,486.30000000000007H0.5V0.5H-6" style="stroke: black;"></path><g class="tick" opacity="1" transform="translate(0,445.59967971414954)"><line stroke="#000" x2="-6" style="stroke: black;"></line><text fill="#000" x="-9" dy="0.32em" style="font-weight: lighter;">-0.8</text></g><g class="tick" opacity="1" transform="translate(0,394.3799225267961)"><line stroke="#000" x2="-6" style="stroke: black;"></line><text fill="#000" x="-9" dy="0.32em" style="font-weight: lighter;">-0.6</text></g><g class="tick" opacity="1" transform="translate(0,343.16016533944276)"><line stroke="#000" x2="-6" style="stroke: black;"></line><text fill="#000" x="-9" dy="0.32em" style="font-weight: lighter;">-0.4</text></g><g class="tick" opacity="1" transform="translate(0,291.9404081520894)"><line stroke="#000" x2="-6" style="stroke: black;"></line><text fill="#000" x="-9" dy="0.32em" style="font-weight: lighter;">-0.2</text></g><g class="tick" opacity="1" transform="translate(0,240.72065096473597)"><line stroke="#000" x2="-6" style="stroke: black;"></line><text fill="#000" x="-9" dy="0.32em" style="font-weight: lighter;">0.0</text></g><g class="tick" opacity="1" transform="translate(0,189.5008937773826)"><line stroke="#000" x2="-6" style="stroke: black;"></line><text fill="#000" x="-9" dy="0.32em" style="font-weight: lighter;">0.2</text></g><g class="tick" opacity="1" transform="translate(0,138.28113659002923)"><line stroke="#000" x2="-6" style="stroke: black;"></line><text fill="#000" x="-9" dy="0.32em" style="font-weight: lighter;">0.4</text></g><g class="tick" opacity="1" transform="translate(0,87.06137940267587)"><line stroke="#000" x2="-6" style="stroke: black;"></line><text fill="#000" x="-9" dy="0.32em" style="font-weight: lighter;">0.6</text></g><g class="tick" opacity="1" transform="translate(0,35.84162221532239)"><line stroke="#000" x2="-6" style="stroke: black;"></line><text fill="#000" x="-9" dy="0.32em" style="font-weight: lighter;">0.8</text></g></g><path d="M0,240.22065096473597L227.425,86.95267273770861L454.85,485.80000000000007L682.2750000000001,0L909.7,379.5437941987205" style="stroke-width: 3; stroke: red; opacity: 0.5; fill: none;"></path><path d="M0,240.22065096473597L113.7125,240.22065096473597L113.7125,86.95267273770861L341.13750000000005,86.95267273770861L341.13750000000005,485.80000000000007L568.5625,485.80000000000007L568.5625,0L795.9875000000001,0L795.9875000000001,379.5437941987205L909.7,379.5437941987205" style="stroke-width: 3; stroke: blue; opacity: 0.5; fill: none;"></path><path d="M0,240.22065096473597L0,86.95267273770861L227.425,86.95267273770861L227.425,485.80000000000007L454.85,485.80000000000007L454.85,0L682.2750000000001,0L682.2750000000001,379.5437941987205L909.7,379.5437941987205" style="stroke-width: 3; stroke: green; opacity: 0.5; fill: none;"></path><path d="M0,240.22065096473597L227.425,240.22065096473597L227.425,86.95267273770861L454.85,86.95267273770861L454.85,485.80000000000007L682.2750000000001,485.80000000000007L682.2750000000001,0L909.7,0L909.7,379.5437941987205" style="stroke-width: 3; stroke: orange; opacity: 0.5; fill: none;"></path><path d="M0,240.22065096473597L37.90416666666667,214.67598792689807C75.80833333333334,189.1313248890602,151.61666666666667,138.0419988133844,227.42500000000004,178.97189031926177C303.23333333333335,219.9017818251391,379.0416666666667,352.8508909125696,454.8500000000001,338.35877878961816C530.6583333333334,323.86666666666673,606.4666666666667,161.93333333333337,682.2750000000001,144.22396569978676C758.0833333333334,126.51459806624017,833.8916666666668,253.02919613248034,871.7958333333335,316.2864951656004L909.7,379.5437941987205" style="stroke-width: 3; stroke: steelblue; opacity: 0.5; fill: none;"></path><path d="M0,240.22065096473597C0,240.22065096473597,151.61666666666667,46.02278123183126,227.425,86.95267273770861C303.23333333333335,127.88256424358596,379.0416666666667,500.2921121229515,454.85,485.80000000000007C530.6583333333333,471.30788787704864,606.4666666666667,17.709367633546595,682.2750000000001,0C758.0833333333335,-17.709367633546595,909.7,379.5437941987205,909.7,379.5437941987205" style="stroke-width: 3; stroke: purple; opacity: 0.5; fill: none;"></path><path d="M0,240.22065096473597C75.80833333333334,163.5866618512223,151.61666666666667,86.95267273770861,227.425,86.95267273770861C303.23333333333335,86.95267273770861,379.0416666666667,485.80000000000007,454.85,485.80000000000007C530.6583333333334,485.80000000000007,606.4666666666667,0,682.2750000000001,0C758.0833333333334,0,833.8916666666668,189.77189709936025,909.7,379.5437941987205" style="stroke-width: 3; stroke: pink; opacity: 0.5; fill: none;"></path><path d="M0,240.22065096473597C0,240.22065096473597,159.12294363125466,70.97604764963195,227.425,86.95267273770861C315.7998295512691,107.62454696856113,381.7675755700533,488.73887614751726,454.85,485.80000000000007C533.8429894649611,482.62344128057526,602.452526379959,4.074276445891986,682.2750000000001,0C754.7721442524739,-3.7003790264415852,909.7,379.5437941987205,909.7,379.5437941987205" style="stroke-width: 3; stroke: gray; opacity: 0.5; fill: none;"></path><circle cy="240.22065096473597" cx="0" r="7" style="opacity: 1; fill: black;"></circle><circle cy="86.95267273770861" cx="227.425" r="7" style="opacity: 1; fill: black;"></circle><circle cy="485.80000000000007" cx="454.85" r="7" style="opacity: 1; fill: black;"></circle><circle cy="0" cx="682.2750000000001" r="7" style="opacity: 1; fill: black;"></circle><circle cy="379.5437941987205" cx="909.7" r="7" style="opacity: 1; fill: black;"></circle><circle cy="240.22065096473597" cx="0" r="7" style="opacity: 1; fill: black;"></circle><circle cy="86.95267273770861" cx="227.425" r="7" style="opacity: 1; fill: black;"></circle><circle cy="485.80000000000007" cx="454.85" r="7" style="opacity: 1; fill: black;"></circle><circle cy="0" cx="682.2750000000001" r="7" style="opacity: 1; fill: black;"></circle><circle cy="379.5437941987205" cx="909.7" r="7" style="opacity: 1; fill: black;"></circle><circle cy="240.22065096473597" cx="0" r="7" style="opacity: 1; fill: black;"></circle><circle cy="86.95267273770861" cx="227.425" r="7" style="opacity: 1; fill: black;"></circle><circle cy="485.80000000000007" cx="454.85" r="7" style="opacity: 1; fill: black;"></circle><circle cy="0" cx="682.2750000000001" r="7" style="opacity: 1; fill: black;"></circle><circle cy="379.5437941987205" cx="909.7" r="7" style="opacity: 1; fill: black;"></circle><circle cy="240.22065096473597" cx="0" r="7" style="opacity: 1; fill: black;"></circle><circle cy="86.95267273770861" cx="227.425" r="7" style="opacity: 1; fill: black;"></circle><circle cy="485.80000000000007" cx="454.85" r="7" style="opacity: 1; fill: black;"></circle><circle cy="0" cx="682.2750000000001" r="7" style="opacity: 1; fill: black;"></circle><circle cy="379.5437941987205" cx="909.7" r="7" style="opacity: 1; fill: black;"></circle><circle cy="240.22065096473597" cx="0" r="7" style="opacity: 1; fill: black;"></circle><circle cy="86.95267273770861" cx="227.425" r="7" style="opacity: 1; fill: black;"></circle><circle cy="485.80000000000007" cx="454.85" r="7" style="opacity: 1; fill: black;"></circle><circle cy="0" cx="682.2750000000001" r="7" style="opacity: 1; fill: black;"></circle><circle cy="379.5437941987205" cx="909.7" r="7" style="opacity: 1; fill: black;"></circle><circle cy="240.22065096473597" cx="0" r="7" style="opacity: 1; fill: black;"></circle><circle cy="86.95267273770861" cx="227.425" r="7" style="opacity: 1; fill: black;"></circle><circle cy="485.80000000000007" cx="454.85" r="7" style="opacity: 1; fill: black;"></circle><circle cy="0" cx="682.2750000000001" r="7" style="opacity: 1; fill: black;"></circle><circle cy="379.5437941987205" cx="909.7" r="7" style="opacity: 1; fill: black;"></circle><circle cy="240.22065096473597" cx="0" r="7" style="opacity: 1; fill: black;"></circle><circle cy="86.95267273770861" cx="227.425" r="7" style="opacity: 1; fill: black;"></circle><circle cy="485.80000000000007" cx="454.85" r="7" style="opacity: 1; fill: black;"></circle><circle cy="0" cx="682.2750000000001" r="7" style="opacity: 1; fill: black;"></circle><circle cy="379.5437941987205" cx="909.7" r="7" style="opacity: 1; fill: black;"></circle><circle cy="240.22065096473597" cx="0" r="7" style="opacity: 1; fill: black;"></circle><circle cy="86.95267273770861" cx="227.425" r="7" style="opacity: 1; fill: black;"></circle><circle cy="485.80000000000007" cx="454.85" r="7" style="opacity: 1; fill: black;"></circle><circle cy="0" cx="682.2750000000001" r="7" style="opacity: 1; fill: black;"></circle><circle cy="379.5437941987205" cx="909.7" r="7" style="opacity: 1; fill: black;"></circle><text fill="red" text-anchor="middle" x="90.97000000000001" y="521.9293154951797" style="font-size: 12px; font-family: sans-serif;">Linear</text><text fill="blue" text-anchor="middle" x="181.94000000000003" y="521.9293154951797" style="font-size: 12px; font-family: sans-serif;">Step</text><text fill="green" text-anchor="middle" x="272.91" y="521.9293154951797" style="font-size: 12px; font-family: sans-serif;">StepBefore</text><text fill="orange" text-anchor="middle" x="363.88000000000005" y="521.9293154951797" style="font-size: 12px; font-family: sans-serif;">StepAfter</text><text fill="steelblue" text-anchor="middle" x="454.85" y="521.9293154951797" style="font-size: 12px; font-family: sans-serif;">Basis</text><text fill="purple" text-anchor="middle" x="545.82" y="521.9293154951797" style="font-size: 12px; font-family: sans-serif;">Cardinal</text><text fill="pink" text-anchor="middle" x="636.79" y="521.9293154951797" style="font-size: 12px; font-family: sans-serif;">MonotoneX</text><text fill="Gray" text-anchor="middle" x="727.7600000000001" y="521.9293154951797" style="font-size: 12px; font-family: sans-serif;">CatmullRom</text></g><text x="499.85" y="575.8000000000001" style="text-anchor: middle; font-family: sans-serif;">x</text><text y="0" x="0" transform="translate(0,287.90000000000003) rotate(-90)" dy="1em" style="text-anchor: middle; font-family: sans-serif;">sin</text></svg>