<svg width="1019.7" height="635.4" title="test2" version="1.1" xmlns="http://www.w3.org/2000/svg"><rect fill="none" width="999.7" height="615.4"></rect><g transform="translate(60,30)"><rect fill="none" width="909.7" height="525.4"></rect><text x="454.85" y="-15" text-anchor="middle" style="font-size: 18px; font-family: sans-serif; font-weight: bold;">My favourite trigonometric functions</text><g transform="translate(0,262.7069354630962)" fill="none" font-size="10" font-family="sans-serif" text-anchor="middle" style="stroke: black;"><path class="domain" stroke="#000" d="M0.5,6V0.5H910.2V6" style="stroke: black;"></path><g class="tick" opacity="1" transform="translate(0.5,0)"><line stroke="#000" y2="6" style="stroke: black;"></line><text fill="#000" y="9" dy="0.71em" style="font-weight: lighter;">0</text></g><g class="tick" opacity="1" transform="translate(91.47000000000001,0)"><line stroke="#000" y2="6" style="stroke: black;"></line><text fill="#000" y="9" dy="0.71em" style="font-weight: lighter;">1</text></g><g class="tick" opacity="1" transform="translate(182.44000000000003,0)"><line stroke="#000" y2="6" style="stroke: black;"></line><text fill="#000" y="9" dy="0.71em" style="font-weight: lighter;">2</text></g><g class="tick" opacity="1" transform="translate(273.41,0)"><line stroke="#000" y2="6" style="stroke: black;"></line><text fill="#000" y="9" dy="0.71em" style="font-weight: lighter;">3</text></g><g class="tick" opacity="1" transform="translate(364.38000000000005,0)"><line stroke="#000" y2="6" style="stroke: black;"></line><text fill="#000" y="9" dy="0.71em" style="font-weight: lighter;">4</text></g><g class="tick" opacity="1" transform="translate(455.35,0)"><line stroke="#000" y2="6" style="stroke: black;"></line><text fill="#000" y="9" dy="0.71em" style="font-weight: lighter;">5</text></g><g class="tick" opacity="1" transform="translate(546.32,0)"><line stroke="#000" y2="6" style="stroke: black;"></line><text fill="#000" y="9" dy="0.71em" style="font-weight: lighter;">6</text></g><g class="tick" opacity="1" transform="translate(637.29,0)"><line stroke="#000" y2="6" style="stroke: black;"></line><text fill="#000" y="9" dy="0.71em" style="font-weight: lighter;">7</text></g><g class="tick" opacity="1" transform="translate(728.2600000000001,0)"><line stroke="#000" y2="6" style="stroke: black;"></line><text fill="#000" y="9" dy="0.71em" style="font-weight: lighter;">8</text></g><g class="tick" opacity="1" transform="translate(819.23,0)"><line stroke="#000" y2="6" style="stroke: black;"></line><text fill="#000" y="9" dy="0.71em" style="font-weight: lighter;">9</text></g><g class="tick" opacity="1" transform="translate(910.2,0)"><line stroke="#000" y2="6" style="stroke: black;"></line><text fill="#000" y="9" dy="0.71em" style="font-weight: lighter;">10</text></g></g><g transform="translate(0,0)" fill="none" font-size="10" font-family="sans-serif" text-anchor="end" style="stroke: black;"><path class="domain" stroke="#000" d="M-6,525.9H0.5V0.5H-6" style="stroke: black;"></path><g class="tick" opacity="1" transform="translate(0,473.3724838335732)"><line stroke="#000" x2="-6" style="stroke: black;"></line><text fill="#000" x="-9" dy="0.32em" style="font-weight: lighter;">-0.8</text></g><g class="tick" opacity="1" transform="translate(0,420.83109674095397)"><line stroke="#000" x2="-6" style="stroke: black;"></line><text fill="#000" x="-9" dy="0.32em" style="font-weight: lighter;">-0.6</text></g><g class="tick" opacity="1" transform="translate(0,368.2897096483347)"><line stroke="#000" x2="-6" style="stroke: black;"></line><text fill="#000" x="-9" dy="0.32em" style="font-weight: lighter;">-0.4</text></g><g class="tick" opacity="1" transform="translate(0,315.74832255571545)"><line stroke="#000" x2="-6" style="stroke: black;"></line><text fill="#000" x="-9" dy="0.32em" style="font-weight: lighter;">-0.2</text></g><g class="tick" opacity="1" transform="translate(0,263.2069354630962)"><line stroke="#000" x2="-6" style="stroke: black;"></line><text fill="#000" x="-9" dy="0.32em" style="font-weight: lighter;">0.0</text></g><g class="tick" opacity="1" transform="translate(0,210.66554837047698)"><line stroke="#000" x2="-6" style="stroke: black;"></line><text fill="#000" x="-9" dy="0.32em" style="font-weight: lighter;">0.2</text></g><g class="tick" opacity="1" transform="translate(0,158.12416127785764)"><line stroke="#000" x2="-6" style="stroke: black;"></line><text fill="#000" x="-9" dy="0.32em" style="font-weight: lighter;">0.4</text></g><g class="tick" opacity="1" transform="translate(0,105.58277418523852)"><line stroke="#000" x2="-6" style="stroke: black;"></line><text fill="#000" x="-9" dy="0.32em" style="font-weight: lighter;">0.6</text></g><g class="tick" opacity="1" transform="translate(0,53.04138709261923)"><line stroke="#000" x2="-6" style="stroke: black;"></line><text fill="#000" x="-9" dy="0.32em" style="font-weight: lighter;">0.8</text></g><g class="tick" opacity="1" transform="translate(0,0.5)"><line stroke="#000" x2="-6" style="stroke: black;"></line><text fill="#000" x="-9" dy="0.32em" style="font-weight: lighter;">1.0</text></g></g><path d="M0,262.7069354630962C0,262.7069354630962,6.118897981468761,245.02124258899175,9.188888797,236.21598316795559C12.244887760994965,227.45085477334928,15.30059514224122,218.68515793686666,18.377777594,209.99508834833233C21.426780249519762,201.38459947824649,24.482022373592596,192.79732339728946,27.566666391,184.31156056519893C30.608545239401103,175.94344342564662,33.66306192717112,167.62144698081457,36.755555188,159.42721880457646C39.79008441850803,151.38657883384215,42.84358534114009,143.41393646588892,45.944443985,135.595753899903C48.97129843754561,127.96415780714729,52.02345060475169,120.4212285898934,55.133332782,113.0601067168173C58.152085935033476,105.91468814540558,61.202513705979605,98.87724159202978,64.32222157900001,92.05001447038205C67.33235568321352,85.46258063601255,70.38065569865218,79.00091044052404,73.511110376,72.77965687094138C76.51205179508118,66.81578917764374,79.55787504769037,60.99387307512219,82.7000028118,55.44549667311219C85.69122235630915,50.16359435088489,88.73446517325627,45.03822789406605,91.88888797,40.224225307548124C94.87015823361175,35.67447288534558,97.91158117450374,31.29465473804348,101.077785864,27.27102901516605C104.04978343799422,23.494202480001377,107.0922496652942,19.901065946808373,110.266665564,16.717949555868245C113.23234814524497,13.744138582159618,116.28330863992973,10.97323606998747,119.45555436100001,8.672586436281904C122.42289628612566,6.520541886966121,125.49568318988072,4.609118205414964,128.64444315800003,3.2169252368262278C131.6302590577879,1.8967763708369667,134.73544917455257,0.8932608303942633,137.833331955,0.4066046593629835C140.86289820746995,-0.0693194529430533,143.98683286586356,-0.11846367494981364,147.022220752,0.27028340348181246C150.1137889186183,0.6662255820858214,153.22206470863273,1.5743583710456455,156.211109549,2.8093354264552772C159.35589722235048,4.108660404211547,162.43173103903231,5.930090241269586,165.400007443,7.997849943238407C168.57103764500454,10.206851927240463,171.62352663979814,12.892129868283405,174.58889624000003,15.78298608083253C177.76372330503946,18.878036540685276,180.80661486820117,22.389071302413445,183.77777594,26.08536431161781C186.94505328296978,30.02563709324208,189.98638411834182,34.327153676172024,192.96665564,38.799938640380105C196.12233279238424,43.53597199053141,199.16535099217438,48.58756126394702,202.155562631,53.79709997343923C205.29892674814923,59.27346052053059,208.34447787017123,65.02696764004183,211.344451428,70.92397651798007C214.4760524676285,77.07972381937145,217.52411484087753,83.47909957128945,220.53334022500002,90.00596010934686C223.65409792413868,96.77472870435425,226.7043282094467,103.75669040011394,229.722229022,110.84850838062124C232.83307237746584,118.15873367068589,235.88506811329069,125.65360093080704,238.911117819,133.23916497895544C242.01286072700995,141.01447331087343,245.0662339560788,148.94699240564472,248.09999751899997,156.94966647519493C251.1933142955671,165.10943418395541,254.24774246854003,173.399659253446,257.28888631600006,181.73828570974274C260.3743113944853,190.1983285353614,263.42949860772694,198.762542399623,266.47778421000004,207.352340643793C269.55571136442353,216.02566615077123,272.611376987142,224.77723548895196,275.66666391,233.53069270228735C278.73737445172225,242.3283388874646,281.7932908294508,251.1786794118973,284.85554361000004,260.0064810276991C287.91921735051113,268.83837895871284,290.9751700958872,277.69785988504447,294.044441504,286.5097984128781C297.10115050312805,295.2856700176491,300.15689163576036,304.06457293688186,303.233330301,312.7704628592195C306.2830475472485,321.40073491374966,309.33834252718697,330.0101779960661,312.422210001,338.5207576100009C315.46482102698934,346.9174813962218,318.51942283169353,355.2703708112108,321.611098798,363.49818169199665C324.6463924794927,371.57594360855416,327.70002284170613,379.5878811796931,330.800005789,387.4481011538704C333.8276617968365,395.1249311985352,336.8799632671273,402.7151399324185,339.988894586,410.12636142394155C343.0084958646759,417.32463362651566,346.0591254546573,424.4168271002529,349.17779248000005,431.3017646365864C352.18882963114334,437.949092657417,355.2373584621881,444.4723994617857,358.36667218,450.7584707736284C361.3685716313428,456.7885961377662,364.41465242870595,462.6783439095319,367.55555188,468.29809931982203C370.5477761670569,473.6518423755131,373.59127070091074,478.8504610435771,376.74443158,483.7418519348911C379.72670268432086,488.3681473490714,382.7682151983764,492.8258570957415,385.93331128,496.93231462310604C388.90617390511005,500.7893647062244,391.94830882184266,504.4642302683961,395.12221827100007,507.73497355230177C398.0883027658941,510.7915512828817,401.13788930958356,513.6477236300517,404.311134359,516.0397361270337C407.2777112265562,518.2759608212967,410.34757211059315,520.276841434948,413.499995865,521.7619213937247C416.4828664679961,523.1671263081787,419.58485309687865,524.265491022721,422.68892105000003,524.8432110397714C425.7128728075252,525.4060200656369,428.8363819847296,525.553447461224,431.87777345899997,525.2522010781084C434.9629266706613,524.9466201444361,438.0741260490918,524.1343717996571,441.06668045000004,522.9846803165603C444.20718980821255,521.778146907969,447.2861697300144,520.0471972439946,450.25556015,518.0638037444188C453.42513066437317,515.9467006809944,456.47929875835354,513.3474473765098,459.4444398500001,510.53973262394123C462.61956361281773,507.5331836758291,465.6629584988393,504.1046181259699,468.63331955,500.48916424493603C471.8016412410685,496.6327573108825,474.8429477170093,492.40995785095697,477.8222265410001,488.01454380395637C480.9791451153883,483.3570528248088,484.02188544273935,478.3797201923014,487.01107895000007,473.2430582367374C490.1556799171564,467.8393424471151,493.2010005677465,462.1548430775504,496.20000413500003,456.32529378575595C499.3327629580702,450.2357471850778,502.3805564849135,443.89932214108563,505.38886564100005,437.4337123000047C508.5106838352894,430.7241431062192,511.5607308048814,423.7983883354129,514.5777817290001,416.76090948801044C517.6896020194698,409.50237457365733,520.7414437958681,402.0563537725005,523.76668872,394.5176183451243C526.86932754886,386.78602178218125,529.9225741305854,378.8944566390577,532.9555684200001,370.93058910855245C536.0497144554595,362.80615272816254,539.1040469895867,354.5485601639043,542.1444481200001,346.2403010799485C545.2306515854197,337.80688164722346,548.2857603250136,329.26663259482007,551.33332782,320.6984353846941C554.4120050792862,312.04277346833277,557.4676565846887,303.3062480023427,560.5222348110001,294.56538451015103C563.5936692465004,285.77628593848135,566.6495443751522,276.93190795074133,569.7110872200001,268.1075582460377C572.7754728557476,259.27501470498845,575.8314599245236,250.4123603523884,578.9000124050001,241.5946764894593C581.9574292285421,232.80899165639144,585.0131739856437,224.01780172200478,588.0888739110001,215.29701870329376C591.139308396587,206.64787284797598,594.1946914412156,198.01716794525782,597.277789999,189.48267600164644C600.3211330093937,181.05823353993074,603.3757923957755,172.6753249025053,606.4666515050001,164.41481243004813C609.5027021748384,156.3007789076646,612.5564690809775,148.25038836673772,615.65557669,140.3489735329012C618.6840238253492,132.62771304840808,621.7364469534696,124.99100854168263,624.844429099,117.53048555481865C627.8648678465156,110.2801051951184,630.9156979763787,103.13389312708125,634.03333609,96.19199650370768C637.0452711263388,89.48546389903211,640.0940294175566,82.9011990758985,643.22221579,76.55101458678513C646.2250711230862,70.45525075148659,649.2714085520804,64.49827855024132,652.41109549,58.80778816560752C655.404334319187,53.38272601349154,658.4481111254339,48.1113489199781,661.6000206750001,43.14315155920116C664.5833015412194,38.44075515698038,667.6249288888309,33.90561294892922,670.7888821810001,29.71685685502098C673.7626330097067,25.779909702122545,676.8045022639822,22.023670754184014,679.977798269,18.665748095749734C682.94433622787,15.526612946225605,685.9926330179669,12.58554063576492,689.166659775,10.102474015313987C692.1326452583867,7.782159753872816,695.1997927000398,5.692314481228964,698.3555849600001,4.114347890784302C701.335761445412,2.6241931086479773,704.4343686681374,1.4315043949563766,707.544437369,0.7624017974073922C710.5630197529026,0.11298163719528789,713.6857672474678,-0.13258481042031262,716.73334436,0.08083492404205117C719.8120117916353,0.29643189222231736,722.9258849733925,1.0123032903199982,725.9222240600001,2.0765590901600035C729.0581568425577,3.1903965282064437,732.1403991476719,4.830311656361412,735.11110376,6.7292486601646715C738.278971102586,8.75421623688426,741.3349750637848,11.267058735137518,744.29998346,13.991466642719388C747.4752817823959,16.909100154148874,750.5192609197687,20.25485198031477,753.48886316,23.789179596341285C756.658191210259,27.56121461858252,759.6995324270401,31.70487766932718,762.67783383,36.02251685244488C765.8359894743768,40.60089046600664,768.8784627362216,45.50346768061515,771.86662256,50.566750412210865C775.012450734537,55.89719403371644,778.0574700833802,61.51212844419228,781.05550226,67.27362424368005C784.1894401926376,73.29629817478605,787.2370702683139,79.56911165117792,790.24447293,85.97281493231424C793.3673719478237,92.62244617121307,796.4171750237961,99.49129203750677,799.4333526300001,106.47370232574139C802.5461397350527,113.67976229472225,805.5978048155113,121.07616146949648,808.6222323300001,128.56727678610713C811.7257666807182,136.25432949241787,814.7788896619406,144.10411032157174,817.81111203,152.02833279298568C820.9060950347457,160.11657003217803,823.9603311135634,168.34067119204994,826.99999173,176.61768881698475C830.0869821369954,185.02358580052908,833.1420147721194,193.53897217049487,836.1888714300001,202.0846620190773C839.2683111529745,210.72173941879038,842.3239723736793,219.4423014318882,845.3778421000001,228.16964803270798C848.450001747905,236.94926355763812,851.5058153796434,245.78675070770868,854.56663083,254.60671440666033C857.6317107514127,263.43896649101674,860.6876665936317,272.30387067374204,863.75551053,281.1263590278783C866.8136475749935,289.9209323583416,869.8695049353618,298.7234756114542,872.9444812,307.45822913824924C875.9956400170784,316.12532700979045,879.0510481025501,324.7763887939327,882.1333609000001,333.3338823844949C885.1774150265363,341.7851575758733,888.2321059138543,350.19721436685205,891.32214963,358.4895478680637C894.3589520155324,366.6390047920978,897.4128654092854,374.7270129863478,900.5111203,382.6687737056258C903.5403689125035,390.4336505438118,909.7,405.6250514713588,909.7,405.6250514713588" style="stroke-width: 3; stroke: tomato; opacity: 1; fill: none;"></path><path d="M0,0C0,0,6.18222723367652,0.48164627920536407,9.188888797,1.3390697914425118C12.312622955224331,2.229879434240907,15.403019280584028,3.6478161975200996,18.377777594,5.342605269779142C21.54044018646355,7.1444477847748,24.60153486618576,9.44707552977287,27.566666391,11.969821183279237C30.741809740901378,14.671245729944218,33.78763913625554,17.815682804006183,36.755555188,21.153136172794916C39.92705142950854,24.71951764409766,42.96846599577639,28.67060904770385,45.944443985,32.79896089256761C49.105550742471586,37.18412804140923,52.147604484090124,41.9043198476629,55.133332782,46.78852553707418C58.28220112791726,51.93960398620922,61.326581171169764,57.384341960589495,64.32222157900001,62.97925117123094C67.45900021705883,68.8377619751128,70.50596858226798,74.95447771892404,73.511110376,81.20607640041698C76.63662036943431,87.70807713618967,79.68592824699505,94.4366511790547,82.7000028118,101.28319123624863C85.81518928771112,108.359409337155,88.86643732684078,115.63291319195852,91.88888797,123.00590231582112C94.99462850813018,130.5820694439759,98.04743706561837,138.32766506302806,101.077785864,146.15280023392614C104.17481413182702,154.1501188385638,107.22880281532275,162.2898435411752,110.266665564,170.48787958802114C113.35557619338024,178.8236744478024,116.41045440417047,187.27539642531252,119.45555436100001,195.76307147308688C122.53680693919627,204.35151552898455,125.59228814172525,213.02980545472752,128.64444315800003,221.72072343509865C131.71836873876447,230.47363243144284,134.774207095619,239.2906601522537,137.833331955,248.09620026968713C140.90015229454983,256.9238914474612,143.956115199115,265.7903828436781,147.022220752,274.62062458088894C150.08205390847945,283.432802107466,153.13791386667975,292.2589605719294,156.211109549,301.02359579792903C159.2639776843298,309.730257646107,162.31951229660206,318.42671037892865,165.400007443,327.0359538521817C168.44583353340337,335.54830564735704,171.50078382074076,344.0270381166569,174.58889624000003,352.3925139563685C177.62750647899406,360.62389192760895,180.6816011583195,368.79918532223763,183.77777594,376.8347882484097C186.80890194691727,384.70156797767316,189.86183271528535,392.4909128649673,192.96665564,400.1136097082963C195.9899317617526,407.5360997853796,199.04137197851196,414.8610689423642,202.155562631,421.9916410093226C205.170516357799,428.89498997747563,208.2200358698656,435.68218310775893,211.344451428,442.2458728610435C214.35052865741744,448.560960576229,217.39775050559376,454.7428144698757,220.53334022500002,460.669825493393C223.52997089517618,466.33417083348013,226.57461641872433,471.8498263157182,229.722229022,477.075663447515C232.7089737129603,482.0344189477866,235.751222479577,486.8305216773896,238.911117819,491.2961474882937C241.88804567885214,495.50320008345426,244.92936798078046,499.53436735466465,248.09999751899997,503.1863159287405C251.06857623180278,506.6055412486876,254.11356942335036,509.8336602236611,257.28888631600006,512.6249557888328C260.2538887675476,515.2313722422225,263.3127678312015,517.6214056140856,266.47778421000004,519.5158270098331C269.4507053263557,521.2952697351284,272.5376848544687,522.8055884774557,275.66666391,523.7886870113371C278.66884685204985,524.731947287738,281.78608422598757,525.3109271868485,284.85554361000004,525.4C287.9120647677518,525.4886973580417,291.03302620462273,525.1046945319514,294.044441504,524.3333047592456C297.1626771560688,523.5345523947376,300.2565004041048,522.2095568198405,303.233330301,520.5995036268957C306.393350454177,518.8903698457889,309.45682536663395,516.6755969936851,312.422210001,514.2366549566908C315.5970168295994,511.6254692967023,318.64379116599207,508.56505367438274,321.611098798,505.30961846392745C324.7833958407446,501.82928923227814,327.82496175921915,497.9586809513082,330.800005789,493.90939845811926C333.9623107241849,489.60523828973623,337.00418004322614,484.96140333183894,339.988894586,480.15221123337653C343.13902234033213,475.0764931745228,346.1831460352836,469.7032169988904,349.17779248000005,464.1783028871962C352.31576819841615,458.3889562484903,355.3624759290105,452.338005685662,358.36667218,446.15053858421857C361.49328225506025,439.71094697228426,364.54236355608333,433.0416887478666,367.55555188,426.2526686904534C370.6717443443484,419.23156981810655,373.72281293786546,412.01027771571205,376.74443158,404.6875555014652C379.85109255372384,397.1587379970992,382.90374652924936,389.4577065040333,385.93331128,381.67504268912694C389.0311986630669,373.71686452743694,392.085097064178,365.6135599741763,395.12221827100007,357.44972754680725C398.21194119060686,349.14450083869514,401.26676000314086,340.72067091997303,404.311134359,332.2585651021187C407.3931485844909,323.6918359618468,410.44855245368075,315.0326198419464,413.499995865,306.35836714689265C416.57465717869815,297.61811357122724,419.6305037725842,288.81114613688965,422.68892105000003,280.01317411699665C425.75645685540627,271.18897135523775,428.8123850963418,262.3234069455702,431.87777345899997,253.49155183796847C434.93831260232264,244.6736680767312,437.9942136358342,235.83930746169625,441.06668045000004,227.06387513530353C444.120258951541,218.34239070134484,447.1758254654363,209.628685995683,450.25556015,200.99955890335502C453.3021048771574,192.46342695183662,456.35712237583925,183.95856976794886,459.4444398500001,175.56430493665027C462.48379312951977,167.3004523987446,465.5379848332714,159.09044664082404,468.63331955,151.01742336997694C471.6652269383356,143.10982656992707,474.71831865751176,135.2775560246574,477.8222265410001,127.60914781350226C480.8463168871804,120.13793406863334,483.8978818677687,112.76224581742721,487.01107895000007,105.5780949767074C490.0269017721254,98.61864927161754,493.0766706724692,91.77354585755889,496.20000413500003,85.14888717062126C499.2070118343018,78.77095797547034,502.2544556211889,72.52458614630042,505.38886564100005,66.52974328522276C508.38648242746325,60.796529864198426,511.4314133774417,55.210516487505934,514.5777817290001,49.91053475811759C517.5655500730018,44.87771092265964,520.6080146143374,40.006171769921686,523.76668872,35.46064188594573C526.7445848602835,31.175262817314252,529.7858619340348,27.06440226883282,532.9555684200001,23.32737758276818C535.9248541448168,19.826645227027473,538.969116105351,16.5152148056484,542.1444481200001,13.634437409147552C545.1094309103985,10.944496526056177,548.1662377140769,8.467478830691826,551.33332782,6.480638578858475C554.3046424483205,4.616615988099914,557.3882720158792,3.0144620647230673,560.5222348110001,1.9388822664918735C563.5202188304883,0.9099705475009281,566.6351152462955,0.23405025644215646,569.7110872200001,0.05552573787952042C572.761258632167,-0.12150135714788277,575.8835735257173,0.16458305440946497,578.9000124050001,0.8497124474085922C582.0125136271756,1.5566606596546093,585.1097284922784,2.7881416957298373,588.0888739110001,4.313366783883112C591.2459652018138,5.929694342812845,594.3120103421164,8.056158765191523,597.277789999,10.411180935176617C600.4520831323451,12.931776383226532,603.4999014714587,15.907822355381429,606.4666515050001,19.08100894863628C609.6396731034359,22.474820183971975,612.6814516061324,26.26457652744897,615.65557669,30.234442059270407C618.8190509644842,34.457051105271496,621.860733597614,39.024068246713036,624.844429099,43.75778070541065C627.995812238312,48.75753407225445,631.0396874785692,54.05880272550717,634.03333609,59.51316679560341C637.1725201940448,65.23269343648647,640.2189672250714,71.21727057568448,643.22221579,77.3399760553678C646.3499392821726,83.71644784930847,649.3987889816582,90.32570515076202,652.41109549,97.05649935158283C655.5283136651485,104.0217115429321,658.5792309010354,111.19002874639153,661.6000206750001,118.46171859137087C664.7076192016173,125.9423757503148,667.7601076395256,133.5980538197507,670.7888821810001,141.33743464827472C673.8876310484424,149.25561979170146,676.9414373618055,157.3216518296212,679.977798269,165.4504215591292C683.0683210594799,173.7241903486296,686.1230136299084,182.11924971871628,689.166659775,190.55488808804552C692.2494422500688,199.09899502140982,695.3048550925835,207.73822057469945,698.3555849600001,216.39489725728754C701.430979760714,225.12156255316881,704.4867324420616,233.91755706544498,707.544437369,242.70702494145849C710.6126884911058,251.5268081833604,713.6686635367709,260.3905041526176,716.73334436,269.2230394782422C719.7945962621848,278.0456925133443,722.8504891041335,286.88733443220985,725.9222240600001,295.67263119346353C728.9765083240546,304.4080182104012,732.0321213940224,313.1380601414777,735.11110376,321.78615243442425C738.1583695881004,330.345160895711,741.2134554189273,338.87524506099163,744.29998346,347.2974022634197C747.3400789849419,355.5928598392925,750.3943567892093,363.836724928639,753.48886316,371.94630606848017C756.5215546492848,379.8938927778185,759.5748282625779,387.76827261471294,762.67783383,395.481568903419C765.7027370758615,403.00072234128453,768.754425562756,410.4263559556855,771.86662256,417.66330781132615C774.88329307369,424.6781270182203,777.9332322229224,431.580454369065,781.05550226,438.26534525611476C784.0634462636206,444.705460050727,787.1112207509017,451.0156743489281,790.24447293,457.0776759406448C793.2430798572802,462.8791751264959,796.2882418913389,468.5350070927846,799.4333526300001,473.908521174959C802.4221258322755,479.0149279839246,805.4647988308433,483.9614268487413,808.6222323300001,488.5862991782983C811.6011020914347,492.94961905081254,814.6423809291463,497.13976619396584,817.81111203,500.9613720802229C820.7811495079402,504.5433461723262,823.8247790247701,507.9377498818949,826.99999173,510.907614281017C829.9650652034126,513.6809296355963,833.0199642042992,516.2445251727115,836.1888714300001,518.3235841246209C839.1588015740939,520.2720980484572,842.2391762356593,521.9654988584093,845.3778421000001,523.1337192151873C848.3719082358798,524.2481191419885,851.4841773660992,525.0206034753207,854.56663083,525.2889616595878C857.6105519107906,525.55396521726,860.7337985455555,525.3659720520392,863.75551053,524.7673491580177C866.8620984113052,524.1519117379022,869.9627387044982,523.0145108547773,872.9444812,521.5741910176429C876.0983392933842,520.050731368709,879.1670607930882,518.0130373506894,882.1333609000001,515.7420523901831C885.3069303582209,513.3123830206042,888.355901409629,510.4210777408678,891.32214963,507.33037071978697C894.4958149761031,504.02354369823263,897.5378800739934,500.3150154765653,900.5111203,496.42490931260585C903.6757570739331,492.28438514194215,909.7,483.13683786251954,909.7,483.13683786251954" style="stroke-width: 3; stroke: steelblue; opacity: 1; fill: none;"></path><text fill="tomato" text-anchor="middle" x="428.68602733000006" y="551.6845644725021" style="font-size: 15px; font-family: sans-serif;">cos(x)</text><text fill="steelblue" text-anchor="middle" x="285.790687919" y="551.6845644725021" style="font-size: 15px; font-family: sans-serif;">sin(x)</text></g><text x="499.85" y="615.4" style="text-anchor: middle; font-family: sans-serif;">x</text><text y="0" x="0" transform="translate(0,307.7) rotate(-90)" dy="1em" style="text-anchor: middle; font-family: sans-serif;">f(x)</text></svg>