<svg width="595.8000000000001" height="595.8000000000001" title="test2" version="1.1" xmlns="http://www.w3.org/2000/svg"><rect fill="black" width="575.8000000000001" height="575.8000000000001"></rect><g transform="translate(50,50)"><rect fill="none" width="495.80000000000007" height="465.80000000000007"></rect><text x="247.90000000000003" y="-25" text-anchor="middle" fill="white" style="font-size: 25px; font-family: sans-serif; font-weight: bold;">Regular poligons museum</text><path d="M247.90000000000003,232.90000000000003Z" style="stroke-width: 4; stroke: rgb(255, 161, 144); opacity: 1; fill: none;"></path><path d="M272.69000000000005,232.90000000000003L235.50500000000002,212.73026843400007L235.50500000000002,253.06973156600003L272.69000000000005,232.90000000000003L235.50500000000002,212.73026843400007" style="stroke-width: 4; stroke: rgb(255, 145, 126); opacity: 1; fill: none;"></path><path d="M297.48,232.90000000000003L247.90000000000003,186.32000000000005L198.32000000000005,232.90000000000003L247.90000000000003,279.48L297.48,232.90000000000003L247.90000000000003,186.32000000000005" style="stroke-width: 4; stroke: rgb(255, 130, 107); opacity: 1; fill: none;"></path><path d="M322.27000000000004,232.90000000000003L270.88159429000007,166.44968234500004L187.73340571000003,191.8314445825L187.73340571000003,273.96855541750006L270.88159429000007,299.350317655L322.27000000000004,232.90000000000003L270.88159429000007,166.44968234500004" style="stroke-width: 4; stroke: rgb(255, 114, 89); opacity: 1; fill: none;"></path><path d="M347.06,232.90000000000003L297.48,152.22107606499998L198.32000000000005,152.22107606499998L148.74,232.90000000000003L198.32000000000005,313.57892393500003L297.48,313.57892393500003L347.06,232.9000000000001L297.48,152.22107606499998" style="stroke-width: 4; stroke: rgb(255, 99, 71); opacity: 1; fill: none;"></path><path d="M371.85,232.90000000000003L325.18156071000004,141.85572182500005L220.318531966,119.36964604500002L136.22491724000002,182.37423614800008L136.22491724000002,283.42576385200005L220.318531966,346.43035395500004L325.18156071000004,323.944278175L371.85,232.9000000000001L325.18156071000004,141.85572182500005" style="stroke-width: 4; stroke: rgb(229, 89, 63); opacity: 1; fill: none;"></path><path d="M396.6400000000001,232.90000000000003L353.07505799500007,134.088902755L247.90000000000003,93.15999999999997L142.72494200500003,134.088902755L99.16000000000003,232.90000000000003L142.72494200500003,331.711097245L247.89999999999998,372.64000000000004L353.07505799500007,331.711097245L396.6400000000001,232.9000000000001L353.07505799500007,134.088902755" style="stroke-width: 4; stroke: rgb(204, 79, 56); opacity: 1; fill: none;"></path><path d="M421.43000000000006,232.90000000000003L380.83168969,128.10634223000005L278.03316718800005,72.34678669500005L161.13500000000002,91.71188602500001L84.83513568500001,177.14045611000006L84.83513568500001,288.65954389L161.13500000000002,374.08811397500006L278.03316718800005,393.4532133050001L380.83168969,337.6936577700001L421.43000000000006,232.9000000000001L380.83168969,128.10634223000005" style="stroke-width: 4; stroke: rgb(178, 69, 49); opacity: 1; fill: none;"></path><path d="M446.2200000000001,232.90000000000003L408.34425144000005,123.38385222L309.18425143999997,55.699141275000045L186.61574856000001,55.699141275000045L87.45574856000002,123.38385222L49.58000000000001,232.89999999999998L87.45574856000002,342.4161477800001L186.61574856000001,410.1008587250001L309.18425143999997,410.1008587250001L408.34425144000005,342.4161477800001L446.2200000000001,232.9000000000001L408.34425144000005,123.38385222" style="stroke-width: 4; stroke: rgb(153, 59, 42); opacity: 1; fill: none;"></path><path d="M471.01000000000005,232.90000000000003L435.59208078000006,119.576274925L340.5832456080001,42.23202483499995L216.14813505600003,25.423527030000002L101.79402426500002,74.48732401500001L33.82751677000001,173.84603903000004L33.82751677000001,291.95396097L101.79402426500002,391.31267598500006L216.14813505600003,440.37647297000007L340.5832456080001,423.56797516500006L435.59208078000006,346.22372507500006L471.01000000000005,232.9000000000001L435.59208078000006,119.576274925" style="stroke-width: 4; stroke: rgb(127, 49, 35); opacity: 1; fill: none;"></path><path d="M495.80000000000007,232.90000000000003L462.58770905500006,116.45000000000005L371.85,31.20267269499999L247.90000000000003,0L123.95000000000002,31.20267269499999L33.21229094499999,116.45000000000005L0,232.89999999999998L33.21229094499999,349.35L123.95000000000002,434.5973273050001L247.89999999999998,465.80000000000007L371.85,434.5973273050001L462.58770905500006,349.35L495.80000000000007,232.9000000000001L462.58770905500006,116.45000000000005" style="stroke-width: 4; stroke: rgb(102, 39, 28); opacity: 1; fill: none;"></path><circle cy="232.90000000000003" cx="247.90000000000003" r="4" style="opacity: 1; fill: white;"></circle><circle cy="232.90000000000003" cx="272.69000000000005" r="4" style="opacity: 1; fill: white;"></circle><circle cy="212.73026843400007" cx="235.50500000000002" r="4" style="opacity: 1; fill: white;"></circle><circle cy="253.06973156600003" cx="235.50500000000002" r="4" style="opacity: 1; fill: white;"></circle><circle cy="232.90000000000003" cx="272.69000000000005" r="4" style="opacity: 1; fill: white;"></circle><circle cy="212.73026843400007" cx="235.50500000000002" r="4" style="opacity: 1; fill: white;"></circle><circle cy="232.90000000000003" cx="297.48" r="4" style="opacity: 1; fill: white;"></circle><circle cy="186.32000000000005" cx="247.90000000000003" r="4" style="opacity: 1; fill: white;"></circle><circle cy="232.90000000000003" cx="198.32000000000005" r="4" style="opacity: 1; fill: white;"></circle><circle cy="279.48" cx="247.90000000000003" r="4" style="opacity: 1; fill: white;"></circle><circle cy="232.90000000000003" cx="297.48" r="4" style="opacity: 1; fill: white;"></circle><circle cy="186.32000000000005" cx="247.90000000000003" r="4" style="opacity: 1; fill: white;"></circle><circle cy="232.90000000000003" cx="322.27000000000004" r="4" style="opacity: 1; fill: white;"></circle><circle cy="166.44968234500004" cx="270.88159429000007" r="4" style="opacity: 1; fill: white;"></circle><circle cy="191.8314445825" cx="187.73340571000003" r="4" style="opacity: 1; fill: white;"></circle><circle cy="273.96855541750006" cx="187.73340571000003" r="4" style="opacity: 1; fill: white;"></circle><circle cy="299.350317655" cx="270.88159429000007" r="4" style="opacity: 1; fill: white;"></circle><circle cy="232.90000000000003" cx="322.27000000000004" r="4" style="opacity: 1; fill: white;"></circle><circle cy="166.44968234500004" cx="270.88159429000007" r="4" style="opacity: 1; fill: white;"></circle><circle cy="232.90000000000003" cx="347.06" r="4" style="opacity: 1; fill: white;"></circle><circle cy="152.22107606499998" cx="297.48" r="4" style="opacity: 1; fill: white;"></circle><circle cy="152.22107606499998" cx="198.32000000000005" r="4" style="opacity: 1; fill: white;"></circle><circle cy="232.90000000000003" cx="148.74" r="4" style="opacity: 1; fill: white;"></circle><circle cy="313.57892393500003" cx="198.32000000000005" r="4" style="opacity: 1; fill: white;"></circle><circle cy="313.57892393500003" cx="297.48" r="4" style="opacity: 1; fill: white;"></circle><circle cy="232.9000000000001" cx="347.06" r="4" style="opacity: 1; fill: white;"></circle><circle cy="152.22107606499998" cx="297.48" r="4" style="opacity: 1; fill: white;"></circle><circle cy="232.90000000000003" cx="371.85" r="4" style="opacity: 1; fill: white;"></circle><circle cy="141.85572182500005" cx="325.18156071000004" r="4" style="opacity: 1; fill: white;"></circle><circle cy="119.36964604500002" cx="220.318531966" r="4" style="opacity: 1; fill: white;"></circle><circle cy="182.37423614800008" cx="136.22491724000002" r="4" style="opacity: 1; fill: white;"></circle><circle cy="283.42576385200005" cx="136.22491724000002" r="4" style="opacity: 1; fill: white;"></circle><circle cy="346.43035395500004" cx="220.318531966" r="4" style="opacity: 1; fill: white;"></circle><circle cy="323.944278175" cx="325.18156071000004" r="4" style="opacity: 1; fill: white;"></circle><circle cy="232.9000000000001" cx="371.85" r="4" style="opacity: 1; fill: white;"></circle><circle cy="141.85572182500005" cx="325.18156071000004" r="4" style="opacity: 1; fill: white;"></circle><circle cy="232.90000000000003" cx="396.6400000000001" r="4" style="opacity: 1; fill: white;"></circle><circle cy="134.088902755" cx="353.07505799500007" r="4" style="opacity: 1; fill: white;"></circle><circle cy="93.15999999999997" cx="247.90000000000003" r="4" style="opacity: 1; fill: white;"></circle><circle cy="134.088902755" cx="142.72494200500003" r="4" style="opacity: 1; fill: white;"></circle><circle cy="232.90000000000003" cx="99.16000000000003" r="4" style="opacity: 1; fill: white;"></circle><circle cy="331.711097245" cx="142.72494200500003" r="4" style="opacity: 1; fill: white;"></circle><circle cy="372.64000000000004" cx="247.89999999999998" r="4" style="opacity: 1; fill: white;"></circle><circle cy="331.711097245" cx="353.07505799500007" r="4" style="opacity: 1; fill: white;"></circle><circle cy="232.9000000000001" cx="396.6400000000001" r="4" style="opacity: 1; fill: white;"></circle><circle cy="134.088902755" cx="353.07505799500007" r="4" style="opacity: 1; fill: white;"></circle><circle cy="232.90000000000003" cx="421.43000000000006" r="4" style="opacity: 1; fill: white;"></circle><circle cy="128.10634223000005" cx="380.83168969" r="4" style="opacity: 1; fill: white;"></circle><circle cy="72.34678669500005" cx="278.03316718800005" r="4" style="opacity: 1; fill: white;"></circle><circle cy="91.71188602500001" cx="161.13500000000002" r="4" style="opacity: 1; fill: white;"></circle><circle cy="177.14045611000006" cx="84.83513568500001" r="4" style="opacity: 1; fill: white;"></circle><circle cy="288.65954389" cx="84.83513568500001" r="4" style="opacity: 1; fill: white;"></circle><circle cy="374.08811397500006" cx="161.13500000000002" r="4" style="opacity: 1; fill: white;"></circle><circle cy="393.4532133050001" cx="278.03316718800005" r="4" style="opacity: 1; fill: white;"></circle><circle cy="337.6936577700001" cx="380.83168969" r="4" style="opacity: 1; fill: white;"></circle><circle cy="232.9000000000001" cx="421.43000000000006" r="4" style="opacity: 1; fill: white;"></circle><circle cy="128.10634223000005" cx="380.83168969" r="4" style="opacity: 1; fill: white;"></circle><circle cy="232.90000000000003" cx="446.2200000000001" r="4" style="opacity: 1; fill: white;"></circle><circle cy="123.38385222" cx="408.34425144000005" r="4" style="opacity: 1; fill: white;"></circle><circle cy="55.699141275000045" cx="309.18425143999997" r="4" style="opacity: 1; fill: white;"></circle><circle cy="55.699141275000045" cx="186.61574856000001" r="4" style="opacity: 1; fill: white;"></circle><circle cy="123.38385222" cx="87.45574856000002" r="4" style="opacity: 1; fill: white;"></circle><circle cy="232.89999999999998" cx="49.58000000000001" r="4" style="opacity: 1; fill: white;"></circle><circle cy="342.4161477800001" cx="87.45574856000002" r="4" style="opacity: 1; fill: white;"></circle><circle cy="410.1008587250001" cx="186.61574856000001" r="4" style="opacity: 1; fill: white;"></circle><circle cy="410.1008587250001" cx="309.18425143999997" r="4" style="opacity: 1; fill: white;"></circle><circle cy="342.4161477800001" cx="408.34425144000005" r="4" style="opacity: 1; fill: white;"></circle><circle cy="232.9000000000001" cx="446.2200000000001" r="4" style="opacity: 1; fill: white;"></circle><circle cy="123.38385222" cx="408.34425144000005" r="4" style="opacity: 1; fill: white;"></circle><circle cy="232.90000000000003" cx="471.01000000000005" r="4" style="opacity: 1; fill: white;"></circle><circle cy="119.576274925" cx="435.59208078000006" r="4" style="opacity: 1; fill: white;"></circle><circle cy="42.23202483499995" cx="340.5832456080001" r="4" style="opacity: 1; fill: white;"></circle><circle cy="25.423527030000002" cx="216.14813505600003" r="4" style="opacity: 1; fill: white;"></circle><circle cy="74.48732401500001" cx="101.79402426500002" r="4" style="opacity: 1; fill: white;"></circle><circle cy="173.84603903000004" cx="33.82751677000001" r="4" style="opacity: 1; fill: white;"></circle><circle cy="291.95396097" cx="33.82751677000001" r="4" style="opacity: 1; fill: white;"></circle><circle cy="391.31267598500006" cx="101.79402426500002" r="4" style="opacity: 1; fill: white;"></circle><circle cy="440.37647297000007" cx="216.14813505600003" r="4" style="opacity: 1; fill: white;"></circle><circle cy="423.56797516500006" cx="340.5832456080001" r="4" style="opacity: 1; fill: white;"></circle><circle cy="346.22372507500006" cx="435.59208078000006" r="4" style="opacity: 1; fill: white;"></circle><circle cy="232.9000000000001" cx="471.01000000000005" r="4" style="opacity: 1; fill: white;"></circle><circle cy="119.576274925" cx="435.59208078000006" r="4" style="opacity: 1; fill: white;"></circle><circle cy="232.90000000000003" cx="495.80000000000007" r="4" style="opacity: 1; fill: white;"></circle><circle cy="116.45000000000005" cx="462.58770905500006" r="4" style="opacity: 1; fill: white;"></circle><circle cy="31.20267269499999" cx="371.85" r="4" style="opacity: 1; fill: white;"></circle><circle cy="0" cx="247.90000000000003" r="4" style="opacity: 1; fill: white;"></circle><circle cy="31.20267269499999" cx="123.95000000000002" r="4" style="opacity: 1; fill: white;"></circle><circle cy="116.45000000000005" cx="33.21229094499999" r="4" style="opacity: 1; fill: white;"></circle><circle cy="232.89999999999998" cx="0" r="4" style="opacity: 1; fill: white;"></circle><circle cy="349.35" cx="33.21229094499999" r="4" style="opacity: 1; fill: white;"></circle><circle cy="434.5973273050001" cx="123.95000000000002" r="4" style="opacity: 1; fill: white;"></circle><circle cy="465.80000000000007" cx="247.89999999999998" r="4" style="opacity: 1; fill: white;"></circle><circle cy="434.5973273050001" cx="371.85" r="4" style="opacity: 1; fill: white;"></circle><circle cy="349.35" cx="462.58770905500006" r="4" style="opacity: 1; fill: white;"></circle><circle cy="232.9000000000001" cx="495.80000000000007" r="4" style="opacity: 1; fill: white;"></circle><circle cy="116.45000000000005" cx="462.58770905500006" r="4" style="opacity: 1; fill: white;"></circle></g></svg>