<svg width="1000.0" height="500.0" title="test2" version="1.1" xmlns="http://www.w3.org/2000/svg"><rect fill="none" width="980" height="480"></rect><g transform="translate(60,30)"><rect fill="none" width="890" height="390"></rect><text x="445" y="-15" text-anchor="middle" fill="black" style="font-size: 18px; font-family: sans-serif; font-weight: bold;">Visual proof of the Pythagorean theorem</text><path d="M0,390L209.41176470588235,390L0,243.75L0,390" style="stroke-width: 5; stroke: white; opacity: 1; fill: rgb(13, 55, 13);"></path><path d="M0,243.75L0,48.75L157.05882352941177,48.75L0,243.75" style="stroke-width: 5; stroke: white; opacity: 1; fill: rgb(13, 55, 13);"></path><path d="M157.05882352941177,48.75L366.4705882352941,48.75L366.4705882352941,195L157.05882352941177,48.75" style="stroke-width: 5; stroke: white; opacity: 1; fill: rgb(13, 55, 13);"></path><path d="M209.41176470588235,390L366.4705882352941,390L366.4705882352941,195L209.41176470588235,390" style="stroke-width: 5; stroke: white; opacity: 1; fill: rgb(13, 55, 13);"></path><path d="M523.5294117647059,243.75L680.5882352941176,243.75L680.5882352941176,48.75L523.5294117647059,243.75" style="stroke-width: 5; stroke: white; opacity: 1; fill: rgb(13, 55, 13);"></path><path d="M680.5882352941176,390L890,390L890,243.75L680.5882352941176,390" style="stroke-width: 5; stroke: white; opacity: 1; fill: rgb(13, 55, 13);"></path><path d="M680.5882352941176,390L890,243.75L680.5882352941176,243.75L680.5882352941176,390" style="stroke-width: 5; stroke: white; opacity: 1; fill: rgb(13, 55, 13);"></path><path d="M523.5294117647059,243.75L680.5882352941176,48.75L523.5294117647059,48.75L523.5294117647059,243.75" style="stroke-width: 5; stroke: white; opacity: 1; fill: rgb(13, 55, 13);"></path><path d="M209.41176470588235,390L366.4705882352941,195L157.05882352941177,48.75L0,243.75L209.41176470588235,390" style="stroke-width: 5; stroke: white; opacity: 1; fill: rgb(0, 191, 255);"></path><path d="M523.5294117647059,390L680.5882352941176,390L680.5882352941176,243.75L523.5294117647059,243.75L523.5294117647059,390" style="stroke-width: 5; stroke: white; opacity: 1; fill: rgb(0, 191, 255);"></path><path d="M680.5882352941176,243.75L890,243.75L890,48.75L680.5882352941176,48.75L680.5882352941176,243.75" style="stroke-width: 5; stroke: white; opacity: 1; fill: rgb(0, 191, 255);"></path><text fill="black" text-anchor="middle" x="426.6764705882353" y="212.0625" style="font-size: 8px; font-family: sans-serif;">2</text><text fill="black" text-anchor="middle" x="450.235294117647" y="212.0625" style="font-size: 8px; font-family: sans-serif;">2</text><text fill="black" text-anchor="middle" x="473.79411764705884" y="212.0625" style="font-size: 8px; font-family: sans-serif;">2</text><text fill="white" text-anchor="middle" x="191.08823529411762" y="212.0625" style="font-size: 8px; font-family: sans-serif;">2</text><text fill="white" text-anchor="middle" x="183.23529411764704" y="219.375" style="font-size: 14px; font-family: sans-serif;">c</text><text fill="white" text-anchor="middle" x="52.35294117647059" y="385.125" style="font-size: 14px; font-family: sans-serif;">b</text><text fill="white" text-anchor="middle" x="314.11764705882354" y="385.125" style="font-size: 14px; font-family: sans-serif;">a</text><text fill="white" text-anchor="middle" x="314.11764705882354" y="63.375" style="font-size: 14px; font-family: sans-serif;">b</text><text fill="white" text-anchor="middle" x="52.35294117647059" y="63.375" style="font-size: 14px; font-family: sans-serif;">a</text><text fill="white" text-anchor="middle" x="10.470588235294118" y="97.5" style="font-size: 14px; font-family: sans-serif;">b</text><text fill="white" text-anchor="middle" x="10.470588235294118" y="341.25" style="font-size: 14px; font-family: sans-serif;">a</text><text fill="white" text-anchor="middle" x="355.99999999999994" y="97.5" style="font-size: 14px; font-family: sans-serif;">a</text><text fill="white" text-anchor="middle" x="355.99999999999994" y="341.25" style="font-size: 14px; font-family: sans-serif;">b</text><text fill="white" text-anchor="middle" x="534" y="316.875" style="font-size: 14px; font-family: sans-serif;">a</text><text fill="white" text-anchor="middle" x="670.1176470588235" y="316.875" style="font-size: 14px; font-family: sans-serif;">a</text><text fill="white" text-anchor="middle" x="602.0588235294118" y="385.125" style="font-size: 14px; font-family: sans-serif;">a</text><text fill="white" text-anchor="middle" x="602.0588235294118" y="258.375" style="font-size: 14px; font-family: sans-serif;">a</text><text fill="white" text-anchor="middle" x="785.2941176470588" y="238.875" style="font-size: 14px; font-family: sans-serif;">b</text><text fill="white" text-anchor="middle" x="785.2941176470588" y="63.375" style="font-size: 14px; font-family: sans-serif;">b</text><text fill="white" text-anchor="middle" x="691.0588235294117" y="146.25" style="font-size: 14px; font-family: sans-serif;">b</text><text fill="white" text-anchor="middle" x="879.529411764706" y="146.25" style="font-size: 14px; font-family: sans-serif;">b</text><text fill="black" text-anchor="middle" x="445" y="219.375" style="font-size: 14px; font-family: sans-serif;">c = a + b</text></g></svg>