<svg width="1000" height="1000" title="test2" version="1.1" xmlns="http://www.w3.org/2000/svg"><rect fill="none" width="980" height="950"></rect><g transform="translate(10,50)"><rect fill="none" width="960" height="880"></rect><text x="490" y="-25" text-anchor="middle" fill="black" style="font-size: 18px; font-family: sans-serif; font-weight: bold;">50 Shades of Gray</text><path d="M274.2857142857143,880L274.2857142857143,796.1904761904761L365.71428571428567,796.1904761904761L365.71428571428567,880L274.2857142857143,880" style="stroke-width: 3; stroke: none; opacity: 1; fill: rgb(0, 0, 0);"></path><path d="M365.71428571428567,880L365.71428571428567,796.1904761904761L457.1428571428571,796.1904761904761L457.1428571428571,880L365.71428571428567,880" style="stroke-width: 3; stroke: none; opacity: 1; fill: rgb(5, 5, 5);"></path><path d="M457.1428571428571,880L457.1428571428571,796.1904761904761L548.5714285714286,796.1904761904761L548.5714285714286,880L457.1428571428571,880" style="stroke-width: 3; stroke: none; opacity: 1; fill: rgb(10, 10, 10);"></path><path d="M548.5714285714286,880L548.5714285714286,796.1904761904761L640,796.1904761904761L640,880L548.5714285714286,880" style="stroke-width: 3; stroke: none; opacity: 1; fill: rgb(15, 15, 15);"></path><path d="M640,880L640,796.1904761904761L731.4285714285713,796.1904761904761L731.4285714285713,880L640,880" style="stroke-width: 3; stroke: none; opacity: 1; fill: rgb(20, 20, 20);"></path><path d="M274.2857142857143,796.1904761904761L274.2857142857143,712.3809523809524L365.71428571428567,712.3809523809524L365.71428571428567,796.1904761904761L274.2857142857143,796.1904761904761" style="stroke-width: 3; stroke: none; opacity: 1; fill: rgb(26, 26, 26);"></path><path d="M365.71428571428567,796.1904761904761L365.71428571428567,712.3809523809524L457.1428571428571,712.3809523809524L457.1428571428571,796.1904761904761L365.71428571428567,796.1904761904761" style="stroke-width: 3; stroke: none; opacity: 1; fill: rgb(31, 31, 31);"></path><path d="M457.1428571428571,796.1904761904761L457.1428571428571,712.3809523809524L548.5714285714286,712.3809523809524L548.5714285714286,796.1904761904761L457.1428571428571,796.1904761904761" style="stroke-width: 3; stroke: none; opacity: 1; fill: rgb(36, 36, 36);"></path><path d="M548.5714285714286,796.1904761904761L548.5714285714286,712.3809523809524L640,712.3809523809524L640,796.1904761904761L548.5714285714286,796.1904761904761" style="stroke-width: 3; stroke: none; opacity: 1; fill: rgb(41, 41, 41);"></path><path d="M640,796.1904761904761L640,712.3809523809524L731.4285714285713,712.3809523809524L731.4285714285713,796.1904761904761L640,796.1904761904761" style="stroke-width: 3; stroke: none; opacity: 1; fill: rgb(46, 46, 46);"></path><path d="M274.2857142857143,712.3809523809524L274.2857142857143,628.5714285714286L365.71428571428567,628.5714285714286L365.71428571428567,712.3809523809524L274.2857142857143,712.3809523809524" style="stroke-width: 3; stroke: none; opacity: 1; fill: rgb(52, 52, 52);"></path><path d="M365.71428571428567,712.3809523809524L365.71428571428567,628.5714285714286L457.1428571428571,628.5714285714286L457.1428571428571,712.3809523809524L365.71428571428567,712.3809523809524" style="stroke-width: 3; stroke: none; opacity: 1; fill: rgb(57, 57, 57);"></path><path d="M457.1428571428571,712.3809523809524L457.1428571428571,628.5714285714286L548.5714285714286,628.5714285714286L548.5714285714286,712.3809523809524L457.1428571428571,712.3809523809524" style="stroke-width: 3; stroke: none; opacity: 1; fill: rgb(62, 62, 62);"></path><path d="M548.5714285714286,712.3809523809524L548.5714285714286,628.5714285714286L640,628.5714285714286L640,712.3809523809524L548.5714285714286,712.3809523809524" style="stroke-width: 3; stroke: none; opacity: 1; fill: rgb(67, 67, 67);"></path><path d="M640,712.3809523809524L640,628.5714285714286L731.4285714285713,628.5714285714286L731.4285714285713,712.3809523809524L640,712.3809523809524" style="stroke-width: 3; stroke: none; opacity: 1; fill: rgb(72, 72, 72);"></path><path d="M274.2857142857143,628.5714285714286L274.2857142857143,544.7619047619048L365.71428571428567,544.7619047619048L365.71428571428567,628.5714285714286L274.2857142857143,628.5714285714286" style="stroke-width: 3; stroke: none; opacity: 1; fill: rgb(78, 78, 78);"></path><path d="M365.71428571428567,628.5714285714286L365.71428571428567,544.7619047619048L457.1428571428571,544.7619047619048L457.1428571428571,628.5714285714286L365.71428571428567,628.5714285714286" style="stroke-width: 3; stroke: none; opacity: 1; fill: rgb(83, 83, 83);"></path><path d="M457.1428571428571,628.5714285714286L457.1428571428571,544.7619047619048L548.5714285714286,544.7619047619048L548.5714285714286,628.5714285714286L457.1428571428571,628.5714285714286" style="stroke-width: 3; stroke: none; opacity: 1; fill: rgb(88, 88, 88);"></path><path d="M548.5714285714286,628.5714285714286L548.5714285714286,544.7619047619048L640,544.7619047619048L640,628.5714285714286L548.5714285714286,628.5714285714286" style="stroke-width: 3; stroke: none; opacity: 1; fill: rgb(93, 93, 93);"></path><path d="M640,628.5714285714286L640,544.7619047619048L731.4285714285713,544.7619047619048L731.4285714285713,628.5714285714286L640,628.5714285714286" style="stroke-width: 3; stroke: none; opacity: 1; fill: rgb(98, 98, 98);"></path><path d="M274.2857142857143,544.7619047619048L274.2857142857143,460.95238095238096L365.71428571428567,460.95238095238096L365.71428571428567,544.7619047619048L274.2857142857143,544.7619047619048" style="stroke-width: 3; stroke: none; opacity: 1; fill: rgb(104, 104, 104);"></path><path d="M365.71428571428567,544.7619047619048L365.71428571428567,460.95238095238096L457.1428571428571,460.95238095238096L457.1428571428571,544.7619047619048L365.71428571428567,544.7619047619048" style="stroke-width: 3; stroke: none; opacity: 1; fill: rgb(109, 109, 109);"></path><path d="M457.1428571428571,544.7619047619048L457.1428571428571,460.95238095238096L548.5714285714286,460.95238095238096L548.5714285714286,544.7619047619048L457.1428571428571,544.7619047619048" style="stroke-width: 3; stroke: none; opacity: 1; fill: rgb(114, 114, 114);"></path><path d="M548.5714285714286,544.7619047619048L548.5714285714286,460.95238095238096L640,460.95238095238096L640,544.7619047619048L548.5714285714286,544.7619047619048" style="stroke-width: 3; stroke: none; opacity: 1; fill: rgb(119, 119, 119);"></path><path d="M640,544.7619047619048L640,460.95238095238096L731.4285714285713,460.95238095238096L731.4285714285713,544.7619047619048L640,544.7619047619048" style="stroke-width: 3; stroke: none; opacity: 1; fill: rgb(124, 124, 124);"></path><path d="M274.2857142857143,460.95238095238096L274.2857142857143,377.14285714285717L365.71428571428567,377.14285714285717L365.71428571428567,460.95238095238096L274.2857142857143,460.95238095238096" style="stroke-width: 3; stroke: none; opacity: 1; fill: rgb(130, 130, 130);"></path><path d="M365.71428571428567,460.95238095238096L365.71428571428567,377.14285714285717L457.1428571428571,377.14285714285717L457.1428571428571,460.95238095238096L365.71428571428567,460.95238095238096" style="stroke-width: 3; stroke: none; opacity: 1; fill: rgb(135, 135, 135);"></path><path d="M457.1428571428571,460.95238095238096L457.1428571428571,377.14285714285717L548.5714285714286,377.14285714285717L548.5714285714286,460.95238095238096L457.1428571428571,460.95238095238096" style="stroke-width: 3; stroke: none; opacity: 1; fill: rgb(140, 140, 140);"></path><path d="M548.5714285714286,460.95238095238096L548.5714285714286,377.14285714285717L640,377.14285714285717L640,460.95238095238096L548.5714285714286,460.95238095238096" style="stroke-width: 3; stroke: none; opacity: 1; fill: rgb(145, 145, 145);"></path><path d="M640,460.95238095238096L640,377.14285714285717L731.4285714285713,377.14285714285717L731.4285714285713,460.95238095238096L640,460.95238095238096" style="stroke-width: 3; stroke: none; opacity: 1; fill: rgb(150, 150, 150);"></path><path d="M274.2857142857143,377.14285714285717L274.2857142857143,293.33333333333337L365.71428571428567,293.33333333333337L365.71428571428567,377.14285714285717L274.2857142857143,377.14285714285717" style="stroke-width: 3; stroke: none; opacity: 1; fill: rgb(156, 156, 156);"></path><path d="M365.71428571428567,377.14285714285717L365.71428571428567,293.33333333333337L457.1428571428571,293.33333333333337L457.1428571428571,377.14285714285717L365.71428571428567,377.14285714285717" style="stroke-width: 3; stroke: none; opacity: 1; fill: rgb(161, 161, 161);"></path><path d="M457.1428571428571,377.14285714285717L457.1428571428571,293.33333333333337L548.5714285714286,293.33333333333337L548.5714285714286,377.14285714285717L457.1428571428571,377.14285714285717" style="stroke-width: 3; stroke: none; opacity: 1; fill: rgb(166, 166, 166);"></path><path d="M548.5714285714286,377.14285714285717L548.5714285714286,293.33333333333337L640,293.33333333333337L640,377.14285714285717L548.5714285714286,377.14285714285717" style="stroke-width: 3; stroke: none; opacity: 1; fill: rgb(171, 171, 171);"></path><path d="M640,377.14285714285717L640,293.33333333333337L731.4285714285713,293.33333333333337L731.4285714285713,377.14285714285717L640,377.14285714285717" style="stroke-width: 3; stroke: none; opacity: 1; fill: rgb(176, 176, 176);"></path><path d="M274.2857142857143,293.33333333333337L274.2857142857143,209.52380952380952L365.71428571428567,209.52380952380952L365.71428571428567,293.33333333333337L274.2857142857143,293.33333333333337" style="stroke-width: 3; stroke: none; opacity: 1; fill: rgb(182, 182, 182);"></path><path d="M365.71428571428567,293.33333333333337L365.71428571428567,209.52380952380952L457.1428571428571,209.52380952380952L457.1428571428571,293.33333333333337L365.71428571428567,293.33333333333337" style="stroke-width: 3; stroke: none; opacity: 1; fill: rgb(187, 187, 187);"></path><path d="M457.1428571428571,293.33333333333337L457.1428571428571,209.52380952380952L548.5714285714286,209.52380952380952L548.5714285714286,293.33333333333337L457.1428571428571,293.33333333333337" style="stroke-width: 3; stroke: none; opacity: 1; fill: rgb(192, 192, 192);"></path><path d="M548.5714285714286,293.33333333333337L548.5714285714286,209.52380952380952L640,209.52380952380952L640,293.33333333333337L548.5714285714286,293.33333333333337" style="stroke-width: 3; stroke: none; opacity: 1; fill: rgb(197, 197, 197);"></path><path d="M640,293.33333333333337L640,209.52380952380952L731.4285714285713,209.52380952380952L731.4285714285713,293.33333333333337L640,293.33333333333337" style="stroke-width: 3; stroke: none; opacity: 1; fill: rgb(202, 202, 202);"></path><path d="M274.2857142857143,209.52380952380952L274.2857142857143,125.71428571428578L365.71428571428567,125.71428571428578L365.71428571428567,209.52380952380952L274.2857142857143,209.52380952380952" style="stroke-width: 3; stroke: none; opacity: 1; fill: rgb(208, 208, 208);"></path><path d="M365.71428571428567,209.52380952380952L365.71428571428567,125.71428571428578L457.1428571428571,125.71428571428578L457.1428571428571,209.52380952380952L365.71428571428567,209.52380952380952" style="stroke-width: 3; stroke: none; opacity: 1; fill: rgb(213, 213, 213);"></path><path d="M457.1428571428571,209.52380952380952L457.1428571428571,125.71428571428578L548.5714285714286,125.71428571428578L548.5714285714286,209.52380952380952L457.1428571428571,209.52380952380952" style="stroke-width: 3; stroke: none; opacity: 1; fill: rgb(218, 218, 218);"></path><path d="M548.5714285714286,209.52380952380952L548.5714285714286,125.71428571428578L640,125.71428571428578L640,209.52380952380952L548.5714285714286,209.52380952380952" style="stroke-width: 3; stroke: none; opacity: 1; fill: rgb(223, 223, 223);"></path><path d="M640,209.52380952380952L640,125.71428571428578L731.4285714285713,125.71428571428578L731.4285714285713,209.52380952380952L640,209.52380952380952" style="stroke-width: 3; stroke: none; opacity: 1; fill: rgb(228, 228, 228);"></path><path d="M274.2857142857143,125.71428571428578L274.2857142857143,41.904761904761926L365.71428571428567,41.904761904761926L365.71428571428567,125.71428571428578L274.2857142857143,125.71428571428578" style="stroke-width: 3; stroke: none; opacity: 1; fill: rgb(234, 234, 234);"></path><path d="M365.71428571428567,125.71428571428578L365.71428571428567,41.904761904761926L457.1428571428571,41.904761904761926L457.1428571428571,125.71428571428578L365.71428571428567,125.71428571428578" style="stroke-width: 3; stroke: none; opacity: 1; fill: rgb(239, 239, 239);"></path><path d="M457.1428571428571,125.71428571428578L457.1428571428571,41.904761904761926L548.5714285714286,41.904761904761926L548.5714285714286,125.71428571428578L457.1428571428571,125.71428571428578" style="stroke-width: 3; stroke: none; opacity: 1; fill: rgb(244, 244, 244);"></path><path d="M548.5714285714286,125.71428571428578L548.5714285714286,41.904761904761926L640,41.904761904761926L640,125.71428571428578L548.5714285714286,125.71428571428578" style="stroke-width: 3; stroke: none; opacity: 1; fill: rgb(249, 249, 249);"></path><path d="M640,125.71428571428578L640,41.904761904761926L731.4285714285713,41.904761904761926L731.4285714285713,125.71428571428578L640,125.71428571428578" style="stroke-width: 3; stroke: none; opacity: 1; fill: rgb(255, 255, 255);"></path><text fill="rgb(255,255,255)" text-anchor="middle" x="320" y="838.0952380952381" style="font-size: 8px; font-family: sans-serif;">rgb(0,0,0)</text><text fill="rgb(249,249,249)" text-anchor="middle" x="411.4285714285714" y="838.0952380952381" style="font-size: 8px; font-family: sans-serif;">rgb(5,5,5)</text><text fill="rgb(244,244,244)" text-anchor="middle" x="502.8571428571429" y="838.0952380952381" style="font-size: 8px; font-family: sans-serif;">rgb(10,10,10)</text><text fill="rgb(239,239,239)" text-anchor="middle" x="594.2857142857143" y="838.0952380952381" style="font-size: 8px; font-family: sans-serif;">rgb(15,15,15)</text><text fill="rgb(234,234,234)" text-anchor="middle" x="685.7142857142858" y="838.0952380952381" style="font-size: 8px; font-family: sans-serif;">rgb(20,20,20)</text><text fill="rgb(228,228,228)" text-anchor="middle" x="320" y="754.2857142857143" style="font-size: 8px; font-family: sans-serif;">rgb(26,26,26)</text><text fill="rgb(223,223,223)" text-anchor="middle" x="411.4285714285714" y="754.2857142857143" style="font-size: 8px; font-family: sans-serif;">rgb(31,31,31)</text><text fill="rgb(218,218,218)" text-anchor="middle" x="502.8571428571429" y="754.2857142857143" style="font-size: 8px; font-family: sans-serif;">rgb(36,36,36)</text><text fill="rgb(213,213,213)" text-anchor="middle" x="594.2857142857143" y="754.2857142857143" style="font-size: 8px; font-family: sans-serif;">rgb(41,41,41)</text><text fill="rgb(208,208,208)" text-anchor="middle" x="685.7142857142858" y="754.2857142857143" style="font-size: 8px; font-family: sans-serif;">rgb(46,46,46)</text><text fill="rgb(202,202,202)" text-anchor="middle" x="320" y="670.4761904761905" style="font-size: 8px; font-family: sans-serif;">rgb(52,52,52)</text><text fill="rgb(197,197,197)" text-anchor="middle" x="411.4285714285714" y="670.4761904761905" style="font-size: 8px; font-family: sans-serif;">rgb(57,57,57)</text><text fill="rgb(192,192,192)" text-anchor="middle" x="502.8571428571429" y="670.4761904761905" style="font-size: 8px; font-family: sans-serif;">rgb(62,62,62)</text><text fill="rgb(187,187,187)" text-anchor="middle" x="594.2857142857143" y="670.4761904761905" style="font-size: 8px; font-family: sans-serif;">rgb(67,67,67)</text><text fill="rgb(182,182,182)" text-anchor="middle" x="685.7142857142858" y="670.4761904761905" style="font-size: 8px; font-family: sans-serif;">rgb(72,72,72)</text><text fill="rgb(176,176,176)" text-anchor="middle" x="320" y="586.6666666666667" style="font-size: 8px; font-family: sans-serif;">rgb(78,78,78)</text><text fill="rgb(171,171,171)" text-anchor="middle" x="411.4285714285714" y="586.6666666666667" style="font-size: 8px; font-family: sans-serif;">rgb(83,83,83)</text><text fill="rgb(166,166,166)" text-anchor="middle" x="502.8571428571429" y="586.6666666666667" style="font-size: 8px; font-family: sans-serif;">rgb(88,88,88)</text><text fill="rgb(161,161,161)" text-anchor="middle" x="594.2857142857143" y="586.6666666666667" style="font-size: 8px; font-family: sans-serif;">rgb(93,93,93)</text><text fill="rgb(156,156,156)" text-anchor="middle" x="685.7142857142858" y="586.6666666666667" style="font-size: 8px; font-family: sans-serif;">rgb(98,98,98)</text><text fill="rgb(150,150,150)" text-anchor="middle" x="320" y="502.8571428571429" style="font-size: 8px; font-family: sans-serif;">rgb(104,104,104)</text><text fill="rgb(145,145,145)" text-anchor="middle" x="411.4285714285714" y="502.8571428571429" style="font-size: 8px; font-family: sans-serif;">rgb(109,109,109)</text><text fill="rgb(140,140,140)" text-anchor="middle" x="502.8571428571429" y="502.8571428571429" style="font-size: 8px; font-family: sans-serif;">rgb(114,114,114)</text><text fill="rgb(135,135,135)" text-anchor="middle" x="594.2857142857143" y="502.8571428571429" style="font-size: 8px; font-family: sans-serif;">rgb(119,119,119)</text><text fill="rgb(130,130,130)" text-anchor="middle" x="685.7142857142858" y="502.8571428571429" style="font-size: 8px; font-family: sans-serif;">rgb(124,124,124)</text><text fill="rgb(124,124,124)" text-anchor="middle" x="320" y="419.04761904761904" style="font-size: 8px; font-family: sans-serif;">rgb(130,130,130)</text><text fill="rgb(119,119,119)" text-anchor="middle" x="411.4285714285714" y="419.04761904761904" style="font-size: 8px; font-family: sans-serif;">rgb(135,135,135)</text><text fill="rgb(114,114,114)" text-anchor="middle" x="502.8571428571429" y="419.04761904761904" style="font-size: 8px; font-family: sans-serif;">rgb(140,140,140)</text><text fill="rgb(109,109,109)" text-anchor="middle" x="594.2857142857143" y="419.04761904761904" style="font-size: 8px; font-family: sans-serif;">rgb(145,145,145)</text><text fill="rgb(104,104,104)" text-anchor="middle" x="685.7142857142858" y="419.04761904761904" style="font-size: 8px; font-family: sans-serif;">rgb(150,150,150)</text><text fill="rgb(98,98,98)" text-anchor="middle" x="320" y="335.2380952380952" style="font-size: 8px; font-family: sans-serif;">rgb(156,156,156)</text><text fill="rgb(93,93,93)" text-anchor="middle" x="411.4285714285714" y="335.2380952380952" style="font-size: 8px; font-family: sans-serif;">rgb(161,161,161)</text><text fill="rgb(88,88,88)" text-anchor="middle" x="502.8571428571429" y="335.2380952380952" style="font-size: 8px; font-family: sans-serif;">rgb(166,166,166)</text><text fill="rgb(83,83,83)" text-anchor="middle" x="594.2857142857143" y="335.2380952380952" style="font-size: 8px; font-family: sans-serif;">rgb(171,171,171)</text><text fill="rgb(78,78,78)" text-anchor="middle" x="685.7142857142858" y="335.2380952380952" style="font-size: 8px; font-family: sans-serif;">rgb(176,176,176)</text><text fill="rgb(72,72,72)" text-anchor="middle" x="320" y="251.42857142857144" style="font-size: 8px; font-family: sans-serif;">rgb(182,182,182)</text><text fill="rgb(67,67,67)" text-anchor="middle" x="411.4285714285714" y="251.42857142857144" style="font-size: 8px; font-family: sans-serif;">rgb(187,187,187)</text><text fill="rgb(62,62,62)" text-anchor="middle" x="502.8571428571429" y="251.42857142857144" style="font-size: 8px; font-family: sans-serif;">rgb(192,192,192)</text><text fill="rgb(57,57,57)" text-anchor="middle" x="594.2857142857143" y="251.42857142857144" style="font-size: 8px; font-family: sans-serif;">rgb(197,197,197)</text><text fill="rgb(52,52,52)" text-anchor="middle" x="685.7142857142858" y="251.42857142857144" style="font-size: 8px; font-family: sans-serif;">rgb(202,202,202)</text><text fill="rgb(46,46,46)" text-anchor="middle" x="320" y="167.6190476190476" style="font-size: 8px; font-family: sans-serif;">rgb(208,208,208)</text><text fill="rgb(41,41,41)" text-anchor="middle" x="411.4285714285714" y="167.6190476190476" style="font-size: 8px; font-family: sans-serif;">rgb(213,213,213)</text><text fill="rgb(36,36,36)" text-anchor="middle" x="502.8571428571429" y="167.6190476190476" style="font-size: 8px; font-family: sans-serif;">rgb(218,218,218)</text><text fill="rgb(31,31,31)" text-anchor="middle" x="594.2857142857143" y="167.6190476190476" style="font-size: 8px; font-family: sans-serif;">rgb(223,223,223)</text><text fill="rgb(26,26,26)" text-anchor="middle" x="685.7142857142858" y="167.6190476190476" style="font-size: 8px; font-family: sans-serif;">rgb(228,228,228)</text><text fill="rgb(20,20,20)" text-anchor="middle" x="320" y="83.80952380952385" style="font-size: 8px; font-family: sans-serif;">rgb(234,234,234)</text><text fill="rgb(15,15,15)" text-anchor="middle" x="411.4285714285714" y="83.80952380952385" style="font-size: 8px; font-family: sans-serif;">rgb(239,239,239)</text><text fill="rgb(10,10,10)" text-anchor="middle" x="502.8571428571429" y="83.80952380952385" style="font-size: 8px; font-family: sans-serif;">rgb(244,244,244)</text><text fill="rgb(5,5,5)" text-anchor="middle" x="594.2857142857143" y="83.80952380952385" style="font-size: 8px; font-family: sans-serif;">rgb(249,249,249)</text><text fill="rgb(0,0,0)" text-anchor="middle" x="685.7142857142858" y="83.80952380952385" style="font-size: 8px; font-family: sans-serif;">rgb(255,255,255)</text></g></svg>